<?xml version="1.0" encoding="utf-8" standalone="no"?>
<!DOCTYPE svg PUBLIC "-//W3C//DTD SVG 1.1//EN"
  "http://www.w3.org/Graphics/SVG/1.1/DTD/svg11.dtd">
<!-- Created with matplotlib (https://matplotlib.org/) -->
<svg height="283.250156pt" version="1.1" viewBox="0 0 504.237525 283.250156" width="504.237525pt" xmlns="http://www.w3.org/2000/svg" xmlns:xlink="http://www.w3.org/1999/xlink">
 <defs>
  <style type="text/css">
*{stroke-linecap:butt;stroke-linejoin:round;}
  </style>
 </defs>
 <g id="figure_1">
  <g id="patch_1">
   <path d="M 0 283.250156 
L 504.237525 283.250156 
L 504.237525 0 
L 0 0 
z
" style="fill:#ffffff;"/>
  </g>
  <g id="axes_1">
   <g id="patch_2">
    <path d="M 30.103125 158.22 
L 497.037525 158.22 
L 497.037525 22.32 
L 30.103125 22.32 
z
" style="fill:#ffffff;"/>
   </g>
   <g id="patch_3">
    <path clip-path="url(#pd9aac94cf7)" d="M 30.103125 158.22 
L 45.019713 158.22 
L 45.019713 114.732 
L 30.103125 114.732 
z
" style="fill:#b2b2b2;"/>
   </g>
   <g id="patch_4">
    <path clip-path="url(#pd9aac94cf7)" d="M 48.183837 158.22 
L 63.100425 158.22 
L 63.100425 98.424 
L 48.183837 98.424 
z
" style="fill:#b2b2b2;"/>
   </g>
   <g id="patch_5">
    <path clip-path="url(#pd9aac94cf7)" d="M 66.26455 158.22 
L 81.181138 158.22 
L 81.181138 96.3855 
L 66.26455 96.3855 
z
" style="fill:#b2b2b2;"/>
   </g>
   <g id="patch_6">
    <path clip-path="url(#pd9aac94cf7)" d="M 84.345262 158.22 
L 99.26185 158.22 
L 99.26185 95.706 
L 84.345262 95.706 
z
" style="fill:#b2b2b2;"/>
   </g>
   <g id="patch_7">
    <path clip-path="url(#pd9aac94cf7)" d="M 102.425975 158.22 
L 117.342563 158.22 
L 117.342563 95.706 
L 102.425975 95.706 
z
" style="fill:#b2b2b2;"/>
   </g>
   <g id="patch_8">
    <path clip-path="url(#pd9aac94cf7)" d="M 120.506687 158.22 
L 135.423275 158.22 
L 135.423275 93.6675 
L 120.506687 93.6675 
z
" style="fill:#b2b2b2;"/>
   </g>
   <g id="patch_9">
    <path clip-path="url(#pd9aac94cf7)" d="M 138.5874 158.22 
L 153.503988 158.22 
L 153.503988 93.6675 
L 138.5874 93.6675 
z
" style="fill:#b2b2b2;"/>
   </g>
   <g id="patch_10">
    <path clip-path="url(#pd9aac94cf7)" d="M 156.668112 158.22 
L 171.5847 158.22 
L 171.5847 92.988 
L 156.668112 92.988 
z
" style="fill:#b2b2b2;"/>
   </g>
   <g id="patch_11">
    <path clip-path="url(#pd9aac94cf7)" d="M 174.748825 158.22 
L 189.665413 158.22 
L 189.665413 92.3085 
L 174.748825 92.3085 
z
" style="fill:#b2b2b2;"/>
   </g>
   <g id="patch_12">
    <path clip-path="url(#pd9aac94cf7)" d="M 192.829537 158.22 
L 207.746125 158.22 
L 207.746125 91.629 
L 192.829537 91.629 
z
" style="fill:#b2b2b2;"/>
   </g>
   <g id="patch_13">
    <path clip-path="url(#pd9aac94cf7)" d="M 210.91025 158.22 
L 225.826838 158.22 
L 225.826838 89.5905 
L 210.91025 89.5905 
z
" style="fill:#b2b2b2;"/>
   </g>
   <g id="patch_14">
    <path clip-path="url(#pd9aac94cf7)" d="M 228.990962 158.22 
L 243.90755 158.22 
L 243.90755 90.27 
L 228.990962 90.27 
z
" style="fill:#b2b2b2;"/>
   </g>
   <g id="patch_15">
    <path clip-path="url(#pd9aac94cf7)" d="M 247.071675 158.22 
L 261.988263 158.22 
L 261.988263 89.5905 
L 247.071675 89.5905 
z
" style="fill:#b2b2b2;"/>
   </g>
   <g id="patch_16">
    <path clip-path="url(#pd9aac94cf7)" d="M 265.152387 158.22 
L 280.068975 158.22 
L 280.068975 90.27 
L 265.152387 90.27 
z
" style="fill:#b2b2b2;"/>
   </g>
   <g id="patch_17">
    <path clip-path="url(#pd9aac94cf7)" d="M 283.2331 158.22 
L 298.149688 158.22 
L 298.149688 89.5905 
L 283.2331 89.5905 
z
" style="fill:#b2b2b2;"/>
   </g>
   <g id="patch_18">
    <path clip-path="url(#pd9aac94cf7)" d="M 301.313812 158.22 
L 316.2304 158.22 
L 316.2304 88.911 
L 301.313812 88.911 
z
" style="fill:#b2b2b2;"/>
   </g>
   <g id="patch_19">
    <path clip-path="url(#pd9aac94cf7)" d="M 319.394525 158.22 
L 334.311113 158.22 
L 334.311113 88.2315 
L 319.394525 88.2315 
z
" style="fill:#b2b2b2;"/>
   </g>
   <g id="patch_20">
    <path clip-path="url(#pd9aac94cf7)" d="M 337.475237 158.22 
L 352.391825 158.22 
L 352.391825 84.834 
L 337.475237 84.834 
z
" style="fill:#b2b2b2;"/>
   </g>
   <g id="patch_21">
    <path clip-path="url(#pd9aac94cf7)" d="M 355.55595 158.22 
L 370.472538 158.22 
L 370.472538 84.1545 
L 355.55595 84.1545 
z
" style="fill:#b2b2b2;"/>
   </g>
   <g id="patch_22">
    <path clip-path="url(#pd9aac94cf7)" d="M 373.636662 158.22 
L 388.55325 158.22 
L 388.55325 83.475 
L 373.636662 83.475 
z
" style="fill:#b2b2b2;"/>
   </g>
   <g id="patch_23">
    <path clip-path="url(#pd9aac94cf7)" d="M 391.717375 158.22 
L 406.633963 158.22 
L 406.633963 82.116 
L 391.717375 82.116 
z
" style="fill:#b2b2b2;"/>
   </g>
   <g id="patch_24">
    <path clip-path="url(#pd9aac94cf7)" d="M 409.798087 158.22 
L 424.714675 158.22 
L 424.714675 82.116 
L 409.798087 82.116 
z
" style="fill:#b2b2b2;"/>
   </g>
   <g id="patch_25">
    <path clip-path="url(#pd9aac94cf7)" d="M 427.8788 158.22 
L 442.795388 158.22 
L 442.795388 82.116 
L 427.8788 82.116 
z
" style="fill:#b2b2b2;"/>
   </g>
   <g id="patch_26">
    <path clip-path="url(#pd9aac94cf7)" d="M 445.959512 158.22 
L 460.8761 158.22 
L 460.8761 71.244 
L 445.959512 71.244 
z
" style="fill:#b2b2b2;"/>
   </g>
   <g id="patch_27">
    <path clip-path="url(#pd9aac94cf7)" d="M 464.040225 158.22 
L 478.956813 158.22 
L 478.956813 69.885 
L 464.040225 69.885 
z
" style="fill:#b2b2b2;"/>
   </g>
   <g id="patch_28">
    <path clip-path="url(#pd9aac94cf7)" d="M 482.120937 158.22 
L 497.037525 158.22 
L 497.037525 67.8465 
L 482.120937 67.8465 
z
" style="fill:#b2b2b2;"/>
   </g>
   <g id="matplotlib.axis_1">
    <g id="xtick_1">
     <g id="line2d_1">
      <defs>
       <path d="M 0 0 
L 0 3.5 
" id="m8933acac48" style="stroke:#000000;stroke-width:0.8;"/>
      </defs>
      <g>
       <use style="stroke:#000000;stroke-width:0.8;" x="37.561419" xlink:href="#m8933acac48" y="158.22"/>
      </g>
     </g>
     <g id="text_1">
      <!-- Puducherry -->
      <defs>
       <path d="M 19.671875 64.796875 
L 19.671875 37.40625 
L 32.078125 37.40625 
Q 38.96875 37.40625 42.71875 40.96875 
Q 46.484375 44.53125 46.484375 51.125 
Q 46.484375 57.671875 42.71875 61.234375 
Q 38.96875 64.796875 32.078125 64.796875 
z
M 9.8125 72.90625 
L 32.078125 72.90625 
Q 44.34375 72.90625 50.609375 67.359375 
Q 56.890625 61.8125 56.890625 51.125 
Q 56.890625 40.328125 50.609375 34.8125 
Q 44.34375 29.296875 32.078125 29.296875 
L 19.671875 29.296875 
L 19.671875 0 
L 9.8125 0 
z
" id="DejaVuSans-80"/>
       <path d="M 8.5 21.578125 
L 8.5 54.6875 
L 17.484375 54.6875 
L 17.484375 21.921875 
Q 17.484375 14.15625 20.5 10.265625 
Q 23.53125 6.390625 29.59375 6.390625 
Q 36.859375 6.390625 41.078125 11.03125 
Q 45.3125 15.671875 45.3125 23.6875 
L 45.3125 54.6875 
L 54.296875 54.6875 
L 54.296875 0 
L 45.3125 0 
L 45.3125 8.40625 
Q 42.046875 3.421875 37.71875 1 
Q 33.40625 -1.421875 27.6875 -1.421875 
Q 18.265625 -1.421875 13.375 4.4375 
Q 8.5 10.296875 8.5 21.578125 
z
M 31.109375 56 
z
" id="DejaVuSans-117"/>
       <path d="M 45.40625 46.390625 
L 45.40625 75.984375 
L 54.390625 75.984375 
L 54.390625 0 
L 45.40625 0 
L 45.40625 8.203125 
Q 42.578125 3.328125 38.25 0.953125 
Q 33.9375 -1.421875 27.875 -1.421875 
Q 17.96875 -1.421875 11.734375 6.484375 
Q 5.515625 14.40625 5.515625 27.296875 
Q 5.515625 40.1875 11.734375 48.09375 
Q 17.96875 56 27.875 56 
Q 33.9375 56 38.25 53.625 
Q 42.578125 51.265625 45.40625 46.390625 
z
M 14.796875 27.296875 
Q 14.796875 17.390625 18.875 11.75 
Q 22.953125 6.109375 30.078125 6.109375 
Q 37.203125 6.109375 41.296875 11.75 
Q 45.40625 17.390625 45.40625 27.296875 
Q 45.40625 37.203125 41.296875 42.84375 
Q 37.203125 48.484375 30.078125 48.484375 
Q 22.953125 48.484375 18.875 42.84375 
Q 14.796875 37.203125 14.796875 27.296875 
z
" id="DejaVuSans-100"/>
       <path d="M 48.78125 52.59375 
L 48.78125 44.1875 
Q 44.96875 46.296875 41.140625 47.34375 
Q 37.3125 48.390625 33.40625 48.390625 
Q 24.65625 48.390625 19.8125 42.84375 
Q 14.984375 37.3125 14.984375 27.296875 
Q 14.984375 17.28125 19.8125 11.734375 
Q 24.65625 6.203125 33.40625 6.203125 
Q 37.3125 6.203125 41.140625 7.25 
Q 44.96875 8.296875 48.78125 10.40625 
L 48.78125 2.09375 
Q 45.015625 0.34375 40.984375 -0.53125 
Q 36.96875 -1.421875 32.421875 -1.421875 
Q 20.0625 -1.421875 12.78125 6.34375 
Q 5.515625 14.109375 5.515625 27.296875 
Q 5.515625 40.671875 12.859375 48.328125 
Q 20.21875 56 33.015625 56 
Q 37.15625 56 41.109375 55.140625 
Q 45.0625 54.296875 48.78125 52.59375 
z
" id="DejaVuSans-99"/>
       <path d="M 54.890625 33.015625 
L 54.890625 0 
L 45.90625 0 
L 45.90625 32.71875 
Q 45.90625 40.484375 42.875 44.328125 
Q 39.84375 48.1875 33.796875 48.1875 
Q 26.515625 48.1875 22.3125 43.546875 
Q 18.109375 38.921875 18.109375 30.90625 
L 18.109375 0 
L 9.078125 0 
L 9.078125 75.984375 
L 18.109375 75.984375 
L 18.109375 46.1875 
Q 21.34375 51.125 25.703125 53.5625 
Q 30.078125 56 35.796875 56 
Q 45.21875 56 50.046875 50.171875 
Q 54.890625 44.34375 54.890625 33.015625 
z
" id="DejaVuSans-104"/>
       <path d="M 56.203125 29.59375 
L 56.203125 25.203125 
L 14.890625 25.203125 
Q 15.484375 15.921875 20.484375 11.0625 
Q 25.484375 6.203125 34.421875 6.203125 
Q 39.59375 6.203125 44.453125 7.46875 
Q 49.3125 8.734375 54.109375 11.28125 
L 54.109375 2.78125 
Q 49.265625 0.734375 44.1875 -0.34375 
Q 39.109375 -1.421875 33.890625 -1.421875 
Q 20.796875 -1.421875 13.15625 6.1875 
Q 5.515625 13.8125 5.515625 26.8125 
Q 5.515625 40.234375 12.765625 48.109375 
Q 20.015625 56 32.328125 56 
Q 43.359375 56 49.78125 48.890625 
Q 56.203125 41.796875 56.203125 29.59375 
z
M 47.21875 32.234375 
Q 47.125 39.59375 43.09375 43.984375 
Q 39.0625 48.390625 32.421875 48.390625 
Q 24.90625 48.390625 20.390625 44.140625 
Q 15.875 39.890625 15.1875 32.171875 
z
" id="DejaVuSans-101"/>
       <path d="M 41.109375 46.296875 
Q 39.59375 47.171875 37.8125 47.578125 
Q 36.03125 48 33.890625 48 
Q 26.265625 48 22.1875 43.046875 
Q 18.109375 38.09375 18.109375 28.8125 
L 18.109375 0 
L 9.078125 0 
L 9.078125 54.6875 
L 18.109375 54.6875 
L 18.109375 46.1875 
Q 20.953125 51.171875 25.484375 53.578125 
Q 30.03125 56 36.53125 56 
Q 37.453125 56 38.578125 55.875 
Q 39.703125 55.765625 41.0625 55.515625 
z
" id="DejaVuSans-114"/>
       <path d="M 32.171875 -5.078125 
Q 28.375 -14.84375 24.75 -17.8125 
Q 21.140625 -20.796875 15.09375 -20.796875 
L 7.90625 -20.796875 
L 7.90625 -13.28125 
L 13.1875 -13.28125 
Q 16.890625 -13.28125 18.9375 -11.515625 
Q 21 -9.765625 23.484375 -3.21875 
L 25.09375 0.875 
L 2.984375 54.6875 
L 12.5 54.6875 
L 29.59375 11.921875 
L 46.6875 54.6875 
L 56.203125 54.6875 
z
" id="DejaVuSans-121"/>
      </defs>
      <g transform="translate(40.596731 227.736094)rotate(-90)scale(0.11 -0.11)">
       <use xlink:href="#DejaVuSans-80"/>
       <use x="58.552734" xlink:href="#DejaVuSans-117"/>
       <use x="121.931641" xlink:href="#DejaVuSans-100"/>
       <use x="185.408203" xlink:href="#DejaVuSans-117"/>
       <use x="248.787109" xlink:href="#DejaVuSans-99"/>
       <use x="303.767578" xlink:href="#DejaVuSans-104"/>
       <use x="367.146484" xlink:href="#DejaVuSans-101"/>
       <use x="428.669922" xlink:href="#DejaVuSans-114"/>
       <use x="468.033203" xlink:href="#DejaVuSans-114"/>
       <use x="509.146484" xlink:href="#DejaVuSans-121"/>
      </g>
     </g>
    </g>
    <g id="xtick_2">
     <g id="line2d_2">
      <g>
       <use style="stroke:#000000;stroke-width:0.8;" x="55.642131" xlink:href="#m8933acac48" y="158.22"/>
      </g>
     </g>
     <g id="text_2">
      <!-- Tripura -->
      <defs>
       <path d="M -0.296875 72.90625 
L 61.375 72.90625 
L 61.375 64.59375 
L 35.5 64.59375 
L 35.5 0 
L 25.59375 0 
L 25.59375 64.59375 
L -0.296875 64.59375 
z
" id="DejaVuSans-84"/>
       <path d="M 9.421875 54.6875 
L 18.40625 54.6875 
L 18.40625 0 
L 9.421875 0 
z
M 9.421875 75.984375 
L 18.40625 75.984375 
L 18.40625 64.59375 
L 9.421875 64.59375 
z
" id="DejaVuSans-105"/>
       <path d="M 18.109375 8.203125 
L 18.109375 -20.796875 
L 9.078125 -20.796875 
L 9.078125 54.6875 
L 18.109375 54.6875 
L 18.109375 46.390625 
Q 20.953125 51.265625 25.265625 53.625 
Q 29.59375 56 35.59375 56 
Q 45.5625 56 51.78125 48.09375 
Q 58.015625 40.1875 58.015625 27.296875 
Q 58.015625 14.40625 51.78125 6.484375 
Q 45.5625 -1.421875 35.59375 -1.421875 
Q 29.59375 -1.421875 25.265625 0.953125 
Q 20.953125 3.328125 18.109375 8.203125 
z
M 48.6875 27.296875 
Q 48.6875 37.203125 44.609375 42.84375 
Q 40.53125 48.484375 33.40625 48.484375 
Q 26.265625 48.484375 22.1875 42.84375 
Q 18.109375 37.203125 18.109375 27.296875 
Q 18.109375 17.390625 22.1875 11.75 
Q 26.265625 6.109375 33.40625 6.109375 
Q 40.53125 6.109375 44.609375 11.75 
Q 48.6875 17.390625 48.6875 27.296875 
z
" id="DejaVuSans-112"/>
       <path d="M 34.28125 27.484375 
Q 23.390625 27.484375 19.1875 25 
Q 14.984375 22.515625 14.984375 16.5 
Q 14.984375 11.71875 18.140625 8.90625 
Q 21.296875 6.109375 26.703125 6.109375 
Q 34.1875 6.109375 38.703125 11.40625 
Q 43.21875 16.703125 43.21875 25.484375 
L 43.21875 27.484375 
z
M 52.203125 31.203125 
L 52.203125 0 
L 43.21875 0 
L 43.21875 8.296875 
Q 40.140625 3.328125 35.546875 0.953125 
Q 30.953125 -1.421875 24.3125 -1.421875 
Q 15.921875 -1.421875 10.953125 3.296875 
Q 6 8.015625 6 15.921875 
Q 6 25.140625 12.171875 29.828125 
Q 18.359375 34.515625 30.609375 34.515625 
L 43.21875 34.515625 
L 43.21875 35.40625 
Q 43.21875 41.609375 39.140625 45 
Q 35.0625 48.390625 27.6875 48.390625 
Q 23 48.390625 18.546875 47.265625 
Q 14.109375 46.140625 10.015625 43.890625 
L 10.015625 52.203125 
Q 14.9375 54.109375 19.578125 55.046875 
Q 24.21875 56 28.609375 56 
Q 40.484375 56 46.34375 49.84375 
Q 52.203125 43.703125 52.203125 31.203125 
z
" id="DejaVuSans-97"/>
      </defs>
      <g transform="translate(58.677444 203.111563)rotate(-90)scale(0.11 -0.11)">
       <use xlink:href="#DejaVuSans-84"/>
       <use x="46.333984" xlink:href="#DejaVuSans-114"/>
       <use x="87.447266" xlink:href="#DejaVuSans-105"/>
       <use x="115.230469" xlink:href="#DejaVuSans-112"/>
       <use x="178.707031" xlink:href="#DejaVuSans-117"/>
       <use x="242.085938" xlink:href="#DejaVuSans-114"/>
       <use x="283.199219" xlink:href="#DejaVuSans-97"/>
      </g>
     </g>
    </g>
    <g id="xtick_3">
     <g id="line2d_3">
      <g>
       <use style="stroke:#000000;stroke-width:0.8;" x="73.722844" xlink:href="#m8933acac48" y="158.22"/>
      </g>
     </g>
     <g id="text_3">
      <!-- Gujarat -->
      <defs>
       <path d="M 59.515625 10.40625 
L 59.515625 29.984375 
L 43.40625 29.984375 
L 43.40625 38.09375 
L 69.28125 38.09375 
L 69.28125 6.78125 
Q 63.578125 2.734375 56.6875 0.65625 
Q 49.8125 -1.421875 42 -1.421875 
Q 24.90625 -1.421875 15.25 8.5625 
Q 5.609375 18.5625 5.609375 36.375 
Q 5.609375 54.25 15.25 64.234375 
Q 24.90625 74.21875 42 74.21875 
Q 49.125 74.21875 55.546875 72.453125 
Q 61.96875 70.703125 67.390625 67.28125 
L 67.390625 56.78125 
Q 61.921875 61.421875 55.765625 63.765625 
Q 49.609375 66.109375 42.828125 66.109375 
Q 29.4375 66.109375 22.71875 58.640625 
Q 16.015625 51.171875 16.015625 36.375 
Q 16.015625 21.625 22.71875 14.15625 
Q 29.4375 6.6875 42.828125 6.6875 
Q 48.046875 6.6875 52.140625 7.59375 
Q 56.25 8.5 59.515625 10.40625 
z
" id="DejaVuSans-71"/>
       <path d="M 9.421875 54.6875 
L 18.40625 54.6875 
L 18.40625 -0.984375 
Q 18.40625 -11.421875 14.421875 -16.109375 
Q 10.453125 -20.796875 1.609375 -20.796875 
L -1.8125 -20.796875 
L -1.8125 -13.1875 
L 0.59375 -13.1875 
Q 5.71875 -13.1875 7.5625 -10.8125 
Q 9.421875 -8.453125 9.421875 -0.984375 
z
M 9.421875 75.984375 
L 18.40625 75.984375 
L 18.40625 64.59375 
L 9.421875 64.59375 
z
" id="DejaVuSans-106"/>
       <path d="M 18.3125 70.21875 
L 18.3125 54.6875 
L 36.8125 54.6875 
L 36.8125 47.703125 
L 18.3125 47.703125 
L 18.3125 18.015625 
Q 18.3125 11.328125 20.140625 9.421875 
Q 21.96875 7.515625 27.59375 7.515625 
L 36.8125 7.515625 
L 36.8125 0 
L 27.59375 0 
Q 17.1875 0 13.234375 3.875 
Q 9.28125 7.765625 9.28125 18.015625 
L 9.28125 47.703125 
L 2.6875 47.703125 
L 2.6875 54.6875 
L 9.28125 54.6875 
L 9.28125 70.21875 
z
" id="DejaVuSans-116"/>
      </defs>
      <g transform="translate(76.758156 206.086719)rotate(-90)scale(0.11 -0.11)">
       <use xlink:href="#DejaVuSans-71"/>
       <use x="77.490234" xlink:href="#DejaVuSans-117"/>
       <use x="140.869141" xlink:href="#DejaVuSans-106"/>
       <use x="168.652344" xlink:href="#DejaVuSans-97"/>
       <use x="229.931641" xlink:href="#DejaVuSans-114"/>
       <use x="271.044922" xlink:href="#DejaVuSans-97"/>
       <use x="332.324219" xlink:href="#DejaVuSans-116"/>
      </g>
     </g>
    </g>
    <g id="xtick_4">
     <g id="line2d_4">
      <g>
       <use style="stroke:#000000;stroke-width:0.8;" x="91.803556" xlink:href="#m8933acac48" y="158.22"/>
      </g>
     </g>
     <g id="text_4">
      <!-- Karnataka -->
      <defs>
       <path d="M 9.8125 72.90625 
L 19.671875 72.90625 
L 19.671875 42.09375 
L 52.390625 72.90625 
L 65.09375 72.90625 
L 28.90625 38.921875 
L 67.671875 0 
L 54.6875 0 
L 19.671875 35.109375 
L 19.671875 0 
L 9.8125 0 
z
" id="DejaVuSans-75"/>
       <path d="M 54.890625 33.015625 
L 54.890625 0 
L 45.90625 0 
L 45.90625 32.71875 
Q 45.90625 40.484375 42.875 44.328125 
Q 39.84375 48.1875 33.796875 48.1875 
Q 26.515625 48.1875 22.3125 43.546875 
Q 18.109375 38.921875 18.109375 30.90625 
L 18.109375 0 
L 9.078125 0 
L 9.078125 54.6875 
L 18.109375 54.6875 
L 18.109375 46.1875 
Q 21.34375 51.125 25.703125 53.5625 
Q 30.078125 56 35.796875 56 
Q 45.21875 56 50.046875 50.171875 
Q 54.890625 44.34375 54.890625 33.015625 
z
" id="DejaVuSans-110"/>
       <path d="M 9.078125 75.984375 
L 18.109375 75.984375 
L 18.109375 31.109375 
L 44.921875 54.6875 
L 56.390625 54.6875 
L 27.390625 29.109375 
L 57.625 0 
L 45.90625 0 
L 18.109375 26.703125 
L 18.109375 0 
L 9.078125 0 
z
" id="DejaVuSans-107"/>
      </defs>
      <g transform="translate(94.838869 220.995156)rotate(-90)scale(0.11 -0.11)">
       <use xlink:href="#DejaVuSans-75"/>
       <use x="63.826172" xlink:href="#DejaVuSans-97"/>
       <use x="125.105469" xlink:href="#DejaVuSans-114"/>
       <use x="164.46875" xlink:href="#DejaVuSans-110"/>
       <use x="227.847656" xlink:href="#DejaVuSans-97"/>
       <use x="289.126953" xlink:href="#DejaVuSans-116"/>
       <use x="328.335938" xlink:href="#DejaVuSans-97"/>
       <use x="389.615234" xlink:href="#DejaVuSans-107"/>
       <use x="445.775391" xlink:href="#DejaVuSans-97"/>
      </g>
     </g>
    </g>
    <g id="xtick_5">
     <g id="line2d_5">
      <g>
       <use style="stroke:#000000;stroke-width:0.8;" x="109.884269" xlink:href="#m8933acac48" y="158.22"/>
      </g>
     </g>
     <g id="text_5">
      <!-- Telangana -->
      <defs>
       <path d="M 9.421875 75.984375 
L 18.40625 75.984375 
L 18.40625 0 
L 9.421875 0 
z
" id="DejaVuSans-108"/>
       <path d="M 45.40625 27.984375 
Q 45.40625 37.75 41.375 43.109375 
Q 37.359375 48.484375 30.078125 48.484375 
Q 22.859375 48.484375 18.828125 43.109375 
Q 14.796875 37.75 14.796875 27.984375 
Q 14.796875 18.265625 18.828125 12.890625 
Q 22.859375 7.515625 30.078125 7.515625 
Q 37.359375 7.515625 41.375 12.890625 
Q 45.40625 18.265625 45.40625 27.984375 
z
M 54.390625 6.78125 
Q 54.390625 -7.171875 48.1875 -13.984375 
Q 42 -20.796875 29.203125 -20.796875 
Q 24.46875 -20.796875 20.265625 -20.09375 
Q 16.0625 -19.390625 12.109375 -17.921875 
L 12.109375 -9.1875 
Q 16.0625 -11.328125 19.921875 -12.34375 
Q 23.78125 -13.375 27.78125 -13.375 
Q 36.625 -13.375 41.015625 -8.765625 
Q 45.40625 -4.15625 45.40625 5.171875 
L 45.40625 9.625 
Q 42.625 4.78125 38.28125 2.390625 
Q 33.9375 0 27.875 0 
Q 17.828125 0 11.671875 7.65625 
Q 5.515625 15.328125 5.515625 27.984375 
Q 5.515625 40.671875 11.671875 48.328125 
Q 17.828125 56 27.875 56 
Q 33.9375 56 38.28125 53.609375 
Q 42.625 51.21875 45.40625 46.390625 
L 45.40625 54.6875 
L 54.390625 54.6875 
z
" id="DejaVuSans-103"/>
      </defs>
      <g transform="translate(112.919581 221.041563)rotate(-90)scale(0.11 -0.11)">
       <use xlink:href="#DejaVuSans-84"/>
       <use x="44.083984" xlink:href="#DejaVuSans-101"/>
       <use x="105.607422" xlink:href="#DejaVuSans-108"/>
       <use x="133.390625" xlink:href="#DejaVuSans-97"/>
       <use x="194.669922" xlink:href="#DejaVuSans-110"/>
       <use x="258.048828" xlink:href="#DejaVuSans-103"/>
       <use x="321.525391" xlink:href="#DejaVuSans-97"/>
       <use x="382.804688" xlink:href="#DejaVuSans-110"/>
       <use x="446.183594" xlink:href="#DejaVuSans-97"/>
      </g>
     </g>
    </g>
    <g id="xtick_6">
     <g id="line2d_6">
      <g>
       <use style="stroke:#000000;stroke-width:0.8;" x="127.964981" xlink:href="#m8933acac48" y="158.22"/>
      </g>
     </g>
     <g id="text_6">
      <!-- Andhra Pradesh -->
      <defs>
       <path d="M 34.1875 63.1875 
L 20.796875 26.90625 
L 47.609375 26.90625 
z
M 28.609375 72.90625 
L 39.796875 72.90625 
L 67.578125 0 
L 57.328125 0 
L 50.6875 18.703125 
L 17.828125 18.703125 
L 11.1875 0 
L 0.78125 0 
z
" id="DejaVuSans-65"/>
       <path id="DejaVuSans-32"/>
       <path d="M 44.28125 53.078125 
L 44.28125 44.578125 
Q 40.484375 46.53125 36.375 47.5 
Q 32.28125 48.484375 27.875 48.484375 
Q 21.1875 48.484375 17.84375 46.4375 
Q 14.5 44.390625 14.5 40.28125 
Q 14.5 37.15625 16.890625 35.375 
Q 19.28125 33.59375 26.515625 31.984375 
L 29.59375 31.296875 
Q 39.15625 29.25 43.1875 25.515625 
Q 47.21875 21.78125 47.21875 15.09375 
Q 47.21875 7.46875 41.1875 3.015625 
Q 35.15625 -1.421875 24.609375 -1.421875 
Q 20.21875 -1.421875 15.453125 -0.5625 
Q 10.6875 0.296875 5.421875 2 
L 5.421875 11.28125 
Q 10.40625 8.6875 15.234375 7.390625 
Q 20.0625 6.109375 24.8125 6.109375 
Q 31.15625 6.109375 34.5625 8.28125 
Q 37.984375 10.453125 37.984375 14.40625 
Q 37.984375 18.0625 35.515625 20.015625 
Q 33.0625 21.96875 24.703125 23.78125 
L 21.578125 24.515625 
Q 13.234375 26.265625 9.515625 29.90625 
Q 5.8125 33.546875 5.8125 39.890625 
Q 5.8125 47.609375 11.28125 51.796875 
Q 16.75 56 26.8125 56 
Q 31.78125 56 36.171875 55.265625 
Q 40.578125 54.546875 44.28125 53.078125 
z
" id="DejaVuSans-115"/>
      </defs>
      <g transform="translate(131.000294 252.585781)rotate(-90)scale(0.11 -0.11)">
       <use xlink:href="#DejaVuSans-65"/>
       <use x="68.408203" xlink:href="#DejaVuSans-110"/>
       <use x="131.787109" xlink:href="#DejaVuSans-100"/>
       <use x="195.263672" xlink:href="#DejaVuSans-104"/>
       <use x="258.642578" xlink:href="#DejaVuSans-114"/>
       <use x="299.755859" xlink:href="#DejaVuSans-97"/>
       <use x="361.035156" xlink:href="#DejaVuSans-32"/>
       <use x="392.822266" xlink:href="#DejaVuSans-80"/>
       <use x="451.375" xlink:href="#DejaVuSans-114"/>
       <use x="492.488281" xlink:href="#DejaVuSans-97"/>
       <use x="553.767578" xlink:href="#DejaVuSans-100"/>
       <use x="617.244141" xlink:href="#DejaVuSans-101"/>
       <use x="678.767578" xlink:href="#DejaVuSans-115"/>
       <use x="730.867188" xlink:href="#DejaVuSans-104"/>
      </g>
     </g>
    </g>
    <g id="xtick_7">
     <g id="line2d_7">
      <g>
       <use style="stroke:#000000;stroke-width:0.8;" x="146.045694" xlink:href="#m8933acac48" y="158.22"/>
      </g>
     </g>
     <g id="text_7">
      <!-- Haryana -->
      <defs>
       <path d="M 9.8125 72.90625 
L 19.671875 72.90625 
L 19.671875 43.015625 
L 55.515625 43.015625 
L 55.515625 72.90625 
L 65.375 72.90625 
L 65.375 0 
L 55.515625 0 
L 55.515625 34.71875 
L 19.671875 34.71875 
L 19.671875 0 
L 9.8125 0 
z
" id="DejaVuSans-72"/>
      </defs>
      <g transform="translate(149.081006 211.719063)rotate(-90)scale(0.11 -0.11)">
       <use xlink:href="#DejaVuSans-72"/>
       <use x="75.195312" xlink:href="#DejaVuSans-97"/>
       <use x="136.474609" xlink:href="#DejaVuSans-114"/>
       <use x="177.587891" xlink:href="#DejaVuSans-121"/>
       <use x="236.767578" xlink:href="#DejaVuSans-97"/>
       <use x="298.046875" xlink:href="#DejaVuSans-110"/>
       <use x="361.425781" xlink:href="#DejaVuSans-97"/>
      </g>
     </g>
    </g>
    <g id="xtick_8">
     <g id="line2d_8">
      <g>
       <use style="stroke:#000000;stroke-width:0.8;" x="164.126406" xlink:href="#m8933acac48" y="158.22"/>
      </g>
     </g>
     <g id="text_8">
      <!-- Odisha -->
      <defs>
       <path d="M 39.40625 66.21875 
Q 28.65625 66.21875 22.328125 58.203125 
Q 16.015625 50.203125 16.015625 36.375 
Q 16.015625 22.609375 22.328125 14.59375 
Q 28.65625 6.59375 39.40625 6.59375 
Q 50.140625 6.59375 56.421875 14.59375 
Q 62.703125 22.609375 62.703125 36.375 
Q 62.703125 50.203125 56.421875 58.203125 
Q 50.140625 66.21875 39.40625 66.21875 
z
M 39.40625 74.21875 
Q 54.734375 74.21875 63.90625 63.9375 
Q 73.09375 53.65625 73.09375 36.375 
Q 73.09375 19.140625 63.90625 8.859375 
Q 54.734375 -1.421875 39.40625 -1.421875 
Q 24.03125 -1.421875 14.8125 8.828125 
Q 5.609375 19.09375 5.609375 36.375 
Q 5.609375 53.65625 14.8125 63.9375 
Q 24.03125 74.21875 39.40625 74.21875 
z
" id="DejaVuSans-79"/>
      </defs>
      <g transform="translate(167.161719 203.360781)rotate(-90)scale(0.11 -0.11)">
       <use xlink:href="#DejaVuSans-79"/>
       <use x="78.710938" xlink:href="#DejaVuSans-100"/>
       <use x="142.1875" xlink:href="#DejaVuSans-105"/>
       <use x="169.970703" xlink:href="#DejaVuSans-115"/>
       <use x="222.070312" xlink:href="#DejaVuSans-104"/>
       <use x="285.449219" xlink:href="#DejaVuSans-97"/>
      </g>
     </g>
    </g>
    <g id="xtick_9">
     <g id="line2d_9">
      <g>
       <use style="stroke:#000000;stroke-width:0.8;" x="182.207119" xlink:href="#m8933acac48" y="158.22"/>
      </g>
     </g>
     <g id="text_9">
      <!-- Punjab -->
      <defs>
       <path d="M 48.6875 27.296875 
Q 48.6875 37.203125 44.609375 42.84375 
Q 40.53125 48.484375 33.40625 48.484375 
Q 26.265625 48.484375 22.1875 42.84375 
Q 18.109375 37.203125 18.109375 27.296875 
Q 18.109375 17.390625 22.1875 11.75 
Q 26.265625 6.109375 33.40625 6.109375 
Q 40.53125 6.109375 44.609375 11.75 
Q 48.6875 17.390625 48.6875 27.296875 
z
M 18.109375 46.390625 
Q 20.953125 51.265625 25.265625 53.625 
Q 29.59375 56 35.59375 56 
Q 45.5625 56 51.78125 48.09375 
Q 58.015625 40.1875 58.015625 27.296875 
Q 58.015625 14.40625 51.78125 6.484375 
Q 45.5625 -1.421875 35.59375 -1.421875 
Q 29.59375 -1.421875 25.265625 0.953125 
Q 20.953125 3.328125 18.109375 8.203125 
L 18.109375 0 
L 9.078125 0 
L 9.078125 75.984375 
L 18.109375 75.984375 
z
" id="DejaVuSans-98"/>
      </defs>
      <g transform="translate(185.242431 202.382813)rotate(-90)scale(0.11 -0.11)">
       <use xlink:href="#DejaVuSans-80"/>
       <use x="58.552734" xlink:href="#DejaVuSans-117"/>
       <use x="121.931641" xlink:href="#DejaVuSans-110"/>
       <use x="185.310547" xlink:href="#DejaVuSans-106"/>
       <use x="213.09375" xlink:href="#DejaVuSans-97"/>
       <use x="274.373047" xlink:href="#DejaVuSans-98"/>
      </g>
     </g>
    </g>
    <g id="xtick_10">
     <g id="line2d_10">
      <g>
       <use style="stroke:#000000;stroke-width:0.8;" x="200.287831" xlink:href="#m8933acac48" y="158.22"/>
      </g>
     </g>
     <g id="text_10">
      <!-- Ladakh -->
      <defs>
       <path d="M 9.8125 72.90625 
L 19.671875 72.90625 
L 19.671875 8.296875 
L 55.171875 8.296875 
L 55.171875 0 
L 9.8125 0 
z
" id="DejaVuSans-76"/>
      </defs>
      <g transform="translate(203.323144 205.155156)rotate(-90)scale(0.11 -0.11)">
       <use xlink:href="#DejaVuSans-76"/>
       <use x="55.712891" xlink:href="#DejaVuSans-97"/>
       <use x="116.992188" xlink:href="#DejaVuSans-100"/>
       <use x="180.46875" xlink:href="#DejaVuSans-97"/>
       <use x="241.748047" xlink:href="#DejaVuSans-107"/>
       <use x="299.658203" xlink:href="#DejaVuSans-104"/>
      </g>
     </g>
    </g>
    <g id="xtick_11">
     <g id="line2d_11">
      <g>
       <use style="stroke:#000000;stroke-width:0.8;" x="218.368544" xlink:href="#m8933acac48" y="158.22"/>
      </g>
     </g>
     <g id="text_11">
      <!-- Delhi -->
      <defs>
       <path d="M 19.671875 64.796875 
L 19.671875 8.109375 
L 31.59375 8.109375 
Q 46.6875 8.109375 53.6875 14.9375 
Q 60.6875 21.78125 60.6875 36.53125 
Q 60.6875 51.171875 53.6875 57.984375 
Q 46.6875 64.796875 31.59375 64.796875 
z
M 9.8125 72.90625 
L 30.078125 72.90625 
Q 51.265625 72.90625 61.171875 64.09375 
Q 71.09375 55.28125 71.09375 36.53125 
Q 71.09375 17.671875 61.125 8.828125 
Q 51.171875 0 30.078125 0 
L 9.8125 0 
z
" id="DejaVuSans-68"/>
      </defs>
      <g transform="translate(221.403856 193.541563)rotate(-90)scale(0.11 -0.11)">
       <use xlink:href="#DejaVuSans-68"/>
       <use x="77.001953" xlink:href="#DejaVuSans-101"/>
       <use x="138.525391" xlink:href="#DejaVuSans-108"/>
       <use x="166.308594" xlink:href="#DejaVuSans-104"/>
       <use x="229.6875" xlink:href="#DejaVuSans-105"/>
      </g>
     </g>
    </g>
    <g id="xtick_12">
     <g id="line2d_12">
      <g>
       <use style="stroke:#000000;stroke-width:0.8;" x="236.449256" xlink:href="#m8933acac48" y="158.22"/>
      </g>
     </g>
     <g id="text_12">
      <!-- Uttarakhand -->
      <defs>
       <path d="M 8.6875 72.90625 
L 18.609375 72.90625 
L 18.609375 28.609375 
Q 18.609375 16.890625 22.84375 11.734375 
Q 27.09375 6.59375 36.625 6.59375 
Q 46.09375 6.59375 50.34375 11.734375 
Q 54.59375 16.890625 54.59375 28.609375 
L 54.59375 72.90625 
L 64.5 72.90625 
L 64.5 27.390625 
Q 64.5 13.140625 57.4375 5.859375 
Q 50.390625 -1.421875 36.625 -1.421875 
Q 22.796875 -1.421875 15.734375 5.859375 
Q 8.6875 13.140625 8.6875 27.390625 
z
" id="DejaVuSans-85"/>
      </defs>
      <g transform="translate(239.484569 233.935625)rotate(-90)scale(0.11 -0.11)">
       <use xlink:href="#DejaVuSans-85"/>
       <use x="73.193359" xlink:href="#DejaVuSans-116"/>
       <use x="112.402344" xlink:href="#DejaVuSans-116"/>
       <use x="151.611328" xlink:href="#DejaVuSans-97"/>
       <use x="212.890625" xlink:href="#DejaVuSans-114"/>
       <use x="254.003906" xlink:href="#DejaVuSans-97"/>
       <use x="315.283203" xlink:href="#DejaVuSans-107"/>
       <use x="373.193359" xlink:href="#DejaVuSans-104"/>
       <use x="436.572266" xlink:href="#DejaVuSans-97"/>
       <use x="497.851562" xlink:href="#DejaVuSans-110"/>
       <use x="561.230469" xlink:href="#DejaVuSans-100"/>
      </g>
     </g>
    </g>
    <g id="xtick_13">
     <g id="line2d_13">
      <g>
       <use style="stroke:#000000;stroke-width:0.8;" x="254.529969" xlink:href="#m8933acac48" y="158.22"/>
      </g>
     </g>
     <g id="text_13">
      <!-- Maharashtra -->
      <defs>
       <path d="M 9.8125 72.90625 
L 24.515625 72.90625 
L 43.109375 23.296875 
L 61.8125 72.90625 
L 76.515625 72.90625 
L 76.515625 0 
L 66.890625 0 
L 66.890625 64.015625 
L 48.09375 14.015625 
L 38.1875 14.015625 
L 19.390625 64.015625 
L 19.390625 0 
L 9.8125 0 
z
" id="DejaVuSans-77"/>
      </defs>
      <g transform="translate(257.565281 234.703906)rotate(-90)scale(0.11 -0.11)">
       <use xlink:href="#DejaVuSans-77"/>
       <use x="86.279297" xlink:href="#DejaVuSans-97"/>
       <use x="147.558594" xlink:href="#DejaVuSans-104"/>
       <use x="210.9375" xlink:href="#DejaVuSans-97"/>
       <use x="272.216797" xlink:href="#DejaVuSans-114"/>
       <use x="313.330078" xlink:href="#DejaVuSans-97"/>
       <use x="374.609375" xlink:href="#DejaVuSans-115"/>
       <use x="426.708984" xlink:href="#DejaVuSans-104"/>
       <use x="490.087891" xlink:href="#DejaVuSans-116"/>
       <use x="529.296875" xlink:href="#DejaVuSans-114"/>
       <use x="570.410156" xlink:href="#DejaVuSans-97"/>
      </g>
     </g>
    </g>
    <g id="xtick_14">
     <g id="line2d_14">
      <g>
       <use style="stroke:#000000;stroke-width:0.8;" x="272.610681" xlink:href="#m8933acac48" y="158.22"/>
      </g>
     </g>
     <g id="text_14">
      <!-- State Unassigned -->
      <defs>
       <path d="M 53.515625 70.515625 
L 53.515625 60.890625 
Q 47.90625 63.578125 42.921875 64.890625 
Q 37.9375 66.21875 33.296875 66.21875 
Q 25.25 66.21875 20.875 63.09375 
Q 16.5 59.96875 16.5 54.203125 
Q 16.5 49.359375 19.40625 46.890625 
Q 22.3125 44.4375 30.421875 42.921875 
L 36.375 41.703125 
Q 47.40625 39.59375 52.65625 34.296875 
Q 57.90625 29 57.90625 20.125 
Q 57.90625 9.515625 50.796875 4.046875 
Q 43.703125 -1.421875 29.984375 -1.421875 
Q 24.8125 -1.421875 18.96875 -0.25 
Q 13.140625 0.921875 6.890625 3.21875 
L 6.890625 13.375 
Q 12.890625 10.015625 18.65625 8.296875 
Q 24.421875 6.59375 29.984375 6.59375 
Q 38.421875 6.59375 43.015625 9.90625 
Q 47.609375 13.234375 47.609375 19.390625 
Q 47.609375 24.75 44.3125 27.78125 
Q 41.015625 30.8125 33.5 32.328125 
L 27.484375 33.5 
Q 16.453125 35.6875 11.515625 40.375 
Q 6.59375 45.0625 6.59375 53.421875 
Q 6.59375 63.09375 13.40625 68.65625 
Q 20.21875 74.21875 32.171875 74.21875 
Q 37.3125 74.21875 42.625 73.28125 
Q 47.953125 72.359375 53.515625 70.515625 
z
" id="DejaVuSans-83"/>
      </defs>
      <g transform="translate(275.645994 261.818906)rotate(-90)scale(0.11 -0.11)">
       <use xlink:href="#DejaVuSans-83"/>
       <use x="63.476562" xlink:href="#DejaVuSans-116"/>
       <use x="102.685547" xlink:href="#DejaVuSans-97"/>
       <use x="163.964844" xlink:href="#DejaVuSans-116"/>
       <use x="203.173828" xlink:href="#DejaVuSans-101"/>
       <use x="264.697266" xlink:href="#DejaVuSans-32"/>
       <use x="296.484375" xlink:href="#DejaVuSans-85"/>
       <use x="369.677734" xlink:href="#DejaVuSans-110"/>
       <use x="433.056641" xlink:href="#DejaVuSans-97"/>
       <use x="494.335938" xlink:href="#DejaVuSans-115"/>
       <use x="546.435547" xlink:href="#DejaVuSans-115"/>
       <use x="598.535156" xlink:href="#DejaVuSans-105"/>
       <use x="626.318359" xlink:href="#DejaVuSans-103"/>
       <use x="689.794922" xlink:href="#DejaVuSans-110"/>
       <use x="753.173828" xlink:href="#DejaVuSans-101"/>
       <use x="814.697266" xlink:href="#DejaVuSans-100"/>
      </g>
     </g>
    </g>
    <g id="xtick_15">
     <g id="line2d_15">
      <g>
       <use style="stroke:#000000;stroke-width:0.8;" x="290.691394" xlink:href="#m8933acac48" y="158.22"/>
      </g>
     </g>
     <g id="text_15">
      <!-- Madhya Pradesh -->
      <g transform="translate(293.726706 256.310313)rotate(-90)scale(0.11 -0.11)">
       <use xlink:href="#DejaVuSans-77"/>
       <use x="86.279297" xlink:href="#DejaVuSans-97"/>
       <use x="147.558594" xlink:href="#DejaVuSans-100"/>
       <use x="211.035156" xlink:href="#DejaVuSans-104"/>
       <use x="274.414062" xlink:href="#DejaVuSans-121"/>
       <use x="333.59375" xlink:href="#DejaVuSans-97"/>
       <use x="394.873047" xlink:href="#DejaVuSans-32"/>
       <use x="426.660156" xlink:href="#DejaVuSans-80"/>
       <use x="485.212891" xlink:href="#DejaVuSans-114"/>
       <use x="526.326172" xlink:href="#DejaVuSans-97"/>
       <use x="587.605469" xlink:href="#DejaVuSans-100"/>
       <use x="651.082031" xlink:href="#DejaVuSans-101"/>
       <use x="712.605469" xlink:href="#DejaVuSans-115"/>
       <use x="764.705078" xlink:href="#DejaVuSans-104"/>
      </g>
     </g>
    </g>
    <g id="xtick_16">
     <g id="line2d_16">
      <g>
       <use style="stroke:#000000;stroke-width:0.8;" x="308.772106" xlink:href="#m8933acac48" y="158.22"/>
      </g>
     </g>
     <g id="text_16">
      <!-- Manipur -->
      <g transform="translate(311.807419 209.955625)rotate(-90)scale(0.11 -0.11)">
       <use xlink:href="#DejaVuSans-77"/>
       <use x="86.279297" xlink:href="#DejaVuSans-97"/>
       <use x="147.558594" xlink:href="#DejaVuSans-110"/>
       <use x="210.9375" xlink:href="#DejaVuSans-105"/>
       <use x="238.720703" xlink:href="#DejaVuSans-112"/>
       <use x="302.197266" xlink:href="#DejaVuSans-117"/>
       <use x="365.576172" xlink:href="#DejaVuSans-114"/>
      </g>
     </g>
    </g>
    <g id="xtick_17">
     <g id="line2d_17">
      <g>
       <use style="stroke:#000000;stroke-width:0.8;" x="326.852819" xlink:href="#m8933acac48" y="158.22"/>
      </g>
     </g>
     <g id="text_17">
      <!-- Bihar -->
      <defs>
       <path d="M 19.671875 34.8125 
L 19.671875 8.109375 
L 35.5 8.109375 
Q 43.453125 8.109375 47.28125 11.40625 
Q 51.125 14.703125 51.125 21.484375 
Q 51.125 28.328125 47.28125 31.5625 
Q 43.453125 34.8125 35.5 34.8125 
z
M 19.671875 64.796875 
L 19.671875 42.828125 
L 34.28125 42.828125 
Q 41.5 42.828125 45.03125 45.53125 
Q 48.578125 48.25 48.578125 53.8125 
Q 48.578125 59.328125 45.03125 62.0625 
Q 41.5 64.796875 34.28125 64.796875 
z
M 9.8125 72.90625 
L 35.015625 72.90625 
Q 46.296875 72.90625 52.390625 68.21875 
Q 58.5 63.53125 58.5 54.890625 
Q 58.5 48.1875 55.375 44.234375 
Q 52.25 40.28125 46.1875 39.3125 
Q 53.46875 37.75 57.5 32.78125 
Q 61.53125 27.828125 61.53125 20.40625 
Q 61.53125 10.640625 54.890625 5.3125 
Q 48.25 0 35.984375 0 
L 9.8125 0 
z
" id="DejaVuSans-66"/>
      </defs>
      <g transform="translate(329.888131 194.057188)rotate(-90)scale(0.11 -0.11)">
       <use xlink:href="#DejaVuSans-66"/>
       <use x="68.603516" xlink:href="#DejaVuSans-105"/>
       <use x="96.386719" xlink:href="#DejaVuSans-104"/>
       <use x="159.765625" xlink:href="#DejaVuSans-97"/>
       <use x="221.044922" xlink:href="#DejaVuSans-114"/>
      </g>
     </g>
    </g>
    <g id="xtick_18">
     <g id="line2d_18">
      <g>
       <use style="stroke:#000000;stroke-width:0.8;" x="344.933531" xlink:href="#m8933acac48" y="158.22"/>
      </g>
     </g>
     <g id="text_18">
      <!-- Rajasthan -->
      <defs>
       <path d="M 44.390625 34.1875 
Q 47.5625 33.109375 50.5625 29.59375 
Q 53.5625 26.078125 56.59375 19.921875 
L 66.609375 0 
L 56 0 
L 46.6875 18.703125 
Q 43.0625 26.03125 39.671875 28.421875 
Q 36.28125 30.8125 30.421875 30.8125 
L 19.671875 30.8125 
L 19.671875 0 
L 9.8125 0 
L 9.8125 72.90625 
L 32.078125 72.90625 
Q 44.578125 72.90625 50.734375 67.671875 
Q 56.890625 62.453125 56.890625 51.90625 
Q 56.890625 45.015625 53.6875 40.46875 
Q 50.484375 35.9375 44.390625 34.1875 
z
M 19.671875 64.796875 
L 19.671875 38.921875 
L 32.078125 38.921875 
Q 39.203125 38.921875 42.84375 42.21875 
Q 46.484375 45.515625 46.484375 51.90625 
Q 46.484375 58.296875 42.84375 61.546875 
Q 39.203125 64.796875 32.078125 64.796875 
z
" id="DejaVuSans-82"/>
      </defs>
      <g transform="translate(347.968844 219.879688)rotate(-90)scale(0.11 -0.11)">
       <use xlink:href="#DejaVuSans-82"/>
       <use x="67.232422" xlink:href="#DejaVuSans-97"/>
       <use x="128.511719" xlink:href="#DejaVuSans-106"/>
       <use x="156.294922" xlink:href="#DejaVuSans-97"/>
       <use x="217.574219" xlink:href="#DejaVuSans-115"/>
       <use x="269.673828" xlink:href="#DejaVuSans-116"/>
       <use x="308.882812" xlink:href="#DejaVuSans-104"/>
       <use x="372.261719" xlink:href="#DejaVuSans-97"/>
       <use x="433.541016" xlink:href="#DejaVuSans-110"/>
      </g>
     </g>
    </g>
    <g id="xtick_19">
     <g id="line2d_19">
      <g>
       <use style="stroke:#000000;stroke-width:0.8;" x="363.014244" xlink:href="#m8933acac48" y="158.22"/>
      </g>
     </g>
     <g id="text_19">
      <!-- Chandigarh -->
      <defs>
       <path d="M 64.40625 67.28125 
L 64.40625 56.890625 
Q 59.421875 61.53125 53.78125 63.8125 
Q 48.140625 66.109375 41.796875 66.109375 
Q 29.296875 66.109375 22.65625 58.46875 
Q 16.015625 50.828125 16.015625 36.375 
Q 16.015625 21.96875 22.65625 14.328125 
Q 29.296875 6.6875 41.796875 6.6875 
Q 48.140625 6.6875 53.78125 8.984375 
Q 59.421875 11.28125 64.40625 15.921875 
L 64.40625 5.609375 
Q 59.234375 2.09375 53.4375 0.328125 
Q 47.65625 -1.421875 41.21875 -1.421875 
Q 24.65625 -1.421875 15.125 8.703125 
Q 5.609375 18.84375 5.609375 36.375 
Q 5.609375 53.953125 15.125 64.078125 
Q 24.65625 74.21875 41.21875 74.21875 
Q 47.75 74.21875 53.53125 72.484375 
Q 59.328125 70.75 64.40625 67.28125 
z
" id="DejaVuSans-67"/>
      </defs>
      <g transform="translate(366.049556 228.64875)rotate(-90)scale(0.11 -0.11)">
       <use xlink:href="#DejaVuSans-67"/>
       <use x="69.824219" xlink:href="#DejaVuSans-104"/>
       <use x="133.203125" xlink:href="#DejaVuSans-97"/>
       <use x="194.482422" xlink:href="#DejaVuSans-110"/>
       <use x="257.861328" xlink:href="#DejaVuSans-100"/>
       <use x="321.337891" xlink:href="#DejaVuSans-105"/>
       <use x="349.121094" xlink:href="#DejaVuSans-103"/>
       <use x="412.597656" xlink:href="#DejaVuSans-97"/>
       <use x="473.876953" xlink:href="#DejaVuSans-114"/>
       <use x="513.240234" xlink:href="#DejaVuSans-104"/>
      </g>
     </g>
    </g>
    <g id="xtick_20">
     <g id="line2d_20">
      <g>
       <use style="stroke:#000000;stroke-width:0.8;" x="381.094956" xlink:href="#m8933acac48" y="158.22"/>
      </g>
     </g>
     <g id="text_20">
      <!-- Tamil Nadu -->
      <defs>
       <path d="M 52 44.1875 
Q 55.375 50.25 60.0625 53.125 
Q 64.75 56 71.09375 56 
Q 79.640625 56 84.28125 50.015625 
Q 88.921875 44.046875 88.921875 33.015625 
L 88.921875 0 
L 79.890625 0 
L 79.890625 32.71875 
Q 79.890625 40.578125 77.09375 44.375 
Q 74.3125 48.1875 68.609375 48.1875 
Q 61.625 48.1875 57.5625 43.546875 
Q 53.515625 38.921875 53.515625 30.90625 
L 53.515625 0 
L 44.484375 0 
L 44.484375 32.71875 
Q 44.484375 40.625 41.703125 44.40625 
Q 38.921875 48.1875 33.109375 48.1875 
Q 26.21875 48.1875 22.15625 43.53125 
Q 18.109375 38.875 18.109375 30.90625 
L 18.109375 0 
L 9.078125 0 
L 9.078125 54.6875 
L 18.109375 54.6875 
L 18.109375 46.1875 
Q 21.1875 51.21875 25.484375 53.609375 
Q 29.78125 56 35.6875 56 
Q 41.65625 56 45.828125 52.96875 
Q 50 49.953125 52 44.1875 
z
" id="DejaVuSans-109"/>
       <path d="M 9.8125 72.90625 
L 23.09375 72.90625 
L 55.421875 11.921875 
L 55.421875 72.90625 
L 64.984375 72.90625 
L 64.984375 0 
L 51.703125 0 
L 19.390625 60.984375 
L 19.390625 0 
L 9.8125 0 
z
" id="DejaVuSans-78"/>
      </defs>
      <g transform="translate(384.130269 226.111875)rotate(-90)scale(0.11 -0.11)">
       <use xlink:href="#DejaVuSans-84"/>
       <use x="44.583984" xlink:href="#DejaVuSans-97"/>
       <use x="105.863281" xlink:href="#DejaVuSans-109"/>
       <use x="203.275391" xlink:href="#DejaVuSans-105"/>
       <use x="231.058594" xlink:href="#DejaVuSans-108"/>
       <use x="258.841797" xlink:href="#DejaVuSans-32"/>
       <use x="290.628906" xlink:href="#DejaVuSans-78"/>
       <use x="365.433594" xlink:href="#DejaVuSans-97"/>
       <use x="426.712891" xlink:href="#DejaVuSans-100"/>
       <use x="490.189453" xlink:href="#DejaVuSans-117"/>
      </g>
     </g>
    </g>
    <g id="xtick_21">
     <g id="line2d_21">
      <g>
       <use style="stroke:#000000;stroke-width:0.8;" x="399.175669" xlink:href="#m8933acac48" y="158.22"/>
      </g>
     </g>
     <g id="text_21">
      <!-- Himachal Pradesh -->
      <g transform="translate(402.210981 264.472656)rotate(-90)scale(0.11 -0.11)">
       <use xlink:href="#DejaVuSans-72"/>
       <use x="75.195312" xlink:href="#DejaVuSans-105"/>
       <use x="102.978516" xlink:href="#DejaVuSans-109"/>
       <use x="200.390625" xlink:href="#DejaVuSans-97"/>
       <use x="261.669922" xlink:href="#DejaVuSans-99"/>
       <use x="316.650391" xlink:href="#DejaVuSans-104"/>
       <use x="380.029297" xlink:href="#DejaVuSans-97"/>
       <use x="441.308594" xlink:href="#DejaVuSans-108"/>
       <use x="469.091797" xlink:href="#DejaVuSans-32"/>
       <use x="500.878906" xlink:href="#DejaVuSans-80"/>
       <use x="559.431641" xlink:href="#DejaVuSans-114"/>
       <use x="600.544922" xlink:href="#DejaVuSans-97"/>
       <use x="661.824219" xlink:href="#DejaVuSans-100"/>
       <use x="725.300781" xlink:href="#DejaVuSans-101"/>
       <use x="786.824219" xlink:href="#DejaVuSans-115"/>
       <use x="838.923828" xlink:href="#DejaVuSans-104"/>
      </g>
     </g>
    </g>
    <g id="xtick_22">
     <g id="line2d_22">
      <g>
       <use style="stroke:#000000;stroke-width:0.8;" x="417.256381" xlink:href="#m8933acac48" y="158.22"/>
      </g>
     </g>
     <g id="text_22">
      <!-- Nagaland -->
      <g transform="translate(420.291694 217.665938)rotate(-90)scale(0.11 -0.11)">
       <use xlink:href="#DejaVuSans-78"/>
       <use x="74.804688" xlink:href="#DejaVuSans-97"/>
       <use x="136.083984" xlink:href="#DejaVuSans-103"/>
       <use x="199.560547" xlink:href="#DejaVuSans-97"/>
       <use x="260.839844" xlink:href="#DejaVuSans-108"/>
       <use x="288.623047" xlink:href="#DejaVuSans-97"/>
       <use x="349.902344" xlink:href="#DejaVuSans-110"/>
       <use x="413.28125" xlink:href="#DejaVuSans-100"/>
      </g>
     </g>
    </g>
    <g id="xtick_23">
     <g id="line2d_23">
      <g>
       <use style="stroke:#000000;stroke-width:0.8;" x="435.337094" xlink:href="#m8933acac48" y="158.22"/>
      </g>
     </g>
     <g id="text_23">
      <!-- Jharkhand -->
      <defs>
       <path d="M 9.8125 72.90625 
L 19.671875 72.90625 
L 19.671875 5.078125 
Q 19.671875 -8.109375 14.671875 -14.0625 
Q 9.671875 -20.015625 -1.421875 -20.015625 
L -5.171875 -20.015625 
L -5.171875 -11.71875 
L -2.09375 -11.71875 
Q 4.4375 -11.71875 7.125 -8.046875 
Q 9.8125 -4.390625 9.8125 5.078125 
z
" id="DejaVuSans-74"/>
      </defs>
      <g transform="translate(438.372406 220.735625)rotate(-90)scale(0.11 -0.11)">
       <use xlink:href="#DejaVuSans-74"/>
       <use x="29.492188" xlink:href="#DejaVuSans-104"/>
       <use x="92.871094" xlink:href="#DejaVuSans-97"/>
       <use x="154.150391" xlink:href="#DejaVuSans-114"/>
       <use x="195.263672" xlink:href="#DejaVuSans-107"/>
       <use x="253.173828" xlink:href="#DejaVuSans-104"/>
       <use x="316.552734" xlink:href="#DejaVuSans-97"/>
       <use x="377.832031" xlink:href="#DejaVuSans-110"/>
       <use x="441.210938" xlink:href="#DejaVuSans-100"/>
      </g>
     </g>
    </g>
    <g id="xtick_24">
     <g id="line2d_24">
      <g>
       <use style="stroke:#000000;stroke-width:0.8;" x="453.417806" xlink:href="#m8933acac48" y="158.22"/>
      </g>
     </g>
     <g id="text_24">
      <!-- Uttar Pradesh -->
      <g transform="translate(456.453119 240.810625)rotate(-90)scale(0.11 -0.11)">
       <use xlink:href="#DejaVuSans-85"/>
       <use x="73.193359" xlink:href="#DejaVuSans-116"/>
       <use x="112.402344" xlink:href="#DejaVuSans-116"/>
       <use x="151.611328" xlink:href="#DejaVuSans-97"/>
       <use x="212.890625" xlink:href="#DejaVuSans-114"/>
       <use x="254.003906" xlink:href="#DejaVuSans-32"/>
       <use x="285.791016" xlink:href="#DejaVuSans-80"/>
       <use x="344.34375" xlink:href="#DejaVuSans-114"/>
       <use x="385.457031" xlink:href="#DejaVuSans-97"/>
       <use x="446.736328" xlink:href="#DejaVuSans-100"/>
       <use x="510.212891" xlink:href="#DejaVuSans-101"/>
       <use x="571.736328" xlink:href="#DejaVuSans-115"/>
       <use x="623.835938" xlink:href="#DejaVuSans-104"/>
      </g>
     </g>
    </g>
    <g id="xtick_25">
     <g id="line2d_25">
      <g>
       <use style="stroke:#000000;stroke-width:0.8;" x="471.498519" xlink:href="#m8933acac48" y="158.22"/>
      </g>
     </g>
     <g id="text_25">
      <!-- Chhattisgarh -->
      <g transform="translate(474.533831 236.020469)rotate(-90)scale(0.11 -0.11)">
       <use xlink:href="#DejaVuSans-67"/>
       <use x="69.824219" xlink:href="#DejaVuSans-104"/>
       <use x="133.203125" xlink:href="#DejaVuSans-104"/>
       <use x="196.582031" xlink:href="#DejaVuSans-97"/>
       <use x="257.861328" xlink:href="#DejaVuSans-116"/>
       <use x="297.070312" xlink:href="#DejaVuSans-116"/>
       <use x="336.279297" xlink:href="#DejaVuSans-105"/>
       <use x="364.0625" xlink:href="#DejaVuSans-115"/>
       <use x="416.162109" xlink:href="#DejaVuSans-103"/>
       <use x="479.638672" xlink:href="#DejaVuSans-97"/>
       <use x="540.917969" xlink:href="#DejaVuSans-114"/>
       <use x="580.28125" xlink:href="#DejaVuSans-104"/>
      </g>
     </g>
    </g>
    <g id="xtick_26">
     <g id="line2d_26">
      <g>
       <use style="stroke:#000000;stroke-width:0.8;" x="489.579231" xlink:href="#m8933acac48" y="158.22"/>
      </g>
     </g>
     <g id="text_26">
      <!-- Jammu and Kashmir -->
      <g transform="translate(492.614544 276.050156)rotate(-90)scale(0.11 -0.11)">
       <use xlink:href="#DejaVuSans-74"/>
       <use x="29.492188" xlink:href="#DejaVuSans-97"/>
       <use x="90.771484" xlink:href="#DejaVuSans-109"/>
       <use x="188.183594" xlink:href="#DejaVuSans-109"/>
       <use x="285.595703" xlink:href="#DejaVuSans-117"/>
       <use x="348.974609" xlink:href="#DejaVuSans-32"/>
       <use x="380.761719" xlink:href="#DejaVuSans-97"/>
       <use x="442.041016" xlink:href="#DejaVuSans-110"/>
       <use x="505.419922" xlink:href="#DejaVuSans-100"/>
       <use x="568.896484" xlink:href="#DejaVuSans-32"/>
       <use x="600.683594" xlink:href="#DejaVuSans-75"/>
       <use x="664.509766" xlink:href="#DejaVuSans-97"/>
       <use x="725.789062" xlink:href="#DejaVuSans-115"/>
       <use x="777.888672" xlink:href="#DejaVuSans-104"/>
       <use x="841.267578" xlink:href="#DejaVuSans-109"/>
       <use x="938.679688" xlink:href="#DejaVuSans-105"/>
       <use x="966.462891" xlink:href="#DejaVuSans-114"/>
      </g>
     </g>
    </g>
   </g>
   <g id="matplotlib.axis_2">
    <g id="ytick_1">
     <g id="line2d_27">
      <defs>
       <path d="M 0 0 
L -3.5 0 
" id="m6b5b26579c" style="stroke:#000000;stroke-width:0.8;"/>
      </defs>
      <g>
       <use style="stroke:#000000;stroke-width:0.8;" x="30.103125" xlink:href="#m6b5b26579c" y="158.22"/>
      </g>
     </g>
     <g id="text_27">
      <!-- 0.0 -->
      <defs>
       <path d="M 31.78125 66.40625 
Q 24.171875 66.40625 20.328125 58.90625 
Q 16.5 51.421875 16.5 36.375 
Q 16.5 21.390625 20.328125 13.890625 
Q 24.171875 6.390625 31.78125 6.390625 
Q 39.453125 6.390625 43.28125 13.890625 
Q 47.125 21.390625 47.125 36.375 
Q 47.125 51.421875 43.28125 58.90625 
Q 39.453125 66.40625 31.78125 66.40625 
z
M 31.78125 74.21875 
Q 44.046875 74.21875 50.515625 64.515625 
Q 56.984375 54.828125 56.984375 36.375 
Q 56.984375 17.96875 50.515625 8.265625 
Q 44.046875 -1.421875 31.78125 -1.421875 
Q 19.53125 -1.421875 13.0625 8.265625 
Q 6.59375 17.96875 6.59375 36.375 
Q 6.59375 54.828125 13.0625 64.515625 
Q 19.53125 74.21875 31.78125 74.21875 
z
" id="DejaVuSans-48"/>
       <path d="M 10.6875 12.40625 
L 21 12.40625 
L 21 0 
L 10.6875 0 
z
" id="DejaVuSans-46"/>
      </defs>
      <g transform="translate(7.2 162.019219)scale(0.1 -0.1)">
       <use xlink:href="#DejaVuSans-48"/>
       <use x="63.623047" xlink:href="#DejaVuSans-46"/>
       <use x="95.410156" xlink:href="#DejaVuSans-48"/>
      </g>
     </g>
    </g>
    <g id="ytick_2">
     <g id="line2d_28">
      <g>
       <use style="stroke:#000000;stroke-width:0.8;" x="30.103125" xlink:href="#m6b5b26579c" y="124.245"/>
      </g>
     </g>
     <g id="text_28">
      <!-- 0.5 -->
      <defs>
       <path d="M 10.796875 72.90625 
L 49.515625 72.90625 
L 49.515625 64.59375 
L 19.828125 64.59375 
L 19.828125 46.734375 
Q 21.96875 47.46875 24.109375 47.828125 
Q 26.265625 48.1875 28.421875 48.1875 
Q 40.625 48.1875 47.75 41.5 
Q 54.890625 34.8125 54.890625 23.390625 
Q 54.890625 11.625 47.5625 5.09375 
Q 40.234375 -1.421875 26.90625 -1.421875 
Q 22.3125 -1.421875 17.546875 -0.640625 
Q 12.796875 0.140625 7.71875 1.703125 
L 7.71875 11.625 
Q 12.109375 9.234375 16.796875 8.0625 
Q 21.484375 6.890625 26.703125 6.890625 
Q 35.15625 6.890625 40.078125 11.328125 
Q 45.015625 15.765625 45.015625 23.390625 
Q 45.015625 31 40.078125 35.4375 
Q 35.15625 39.890625 26.703125 39.890625 
Q 22.75 39.890625 18.8125 39.015625 
Q 14.890625 38.140625 10.796875 36.28125 
z
" id="DejaVuSans-53"/>
      </defs>
      <g transform="translate(7.2 128.044219)scale(0.1 -0.1)">
       <use xlink:href="#DejaVuSans-48"/>
       <use x="63.623047" xlink:href="#DejaVuSans-46"/>
       <use x="95.410156" xlink:href="#DejaVuSans-53"/>
      </g>
     </g>
    </g>
    <g id="ytick_3">
     <g id="line2d_29">
      <g>
       <use style="stroke:#000000;stroke-width:0.8;" x="30.103125" xlink:href="#m6b5b26579c" y="90.27"/>
      </g>
     </g>
     <g id="text_29">
      <!-- 1.0 -->
      <defs>
       <path d="M 12.40625 8.296875 
L 28.515625 8.296875 
L 28.515625 63.921875 
L 10.984375 60.40625 
L 10.984375 69.390625 
L 28.421875 72.90625 
L 38.28125 72.90625 
L 38.28125 8.296875 
L 54.390625 8.296875 
L 54.390625 0 
L 12.40625 0 
z
" id="DejaVuSans-49"/>
      </defs>
      <g transform="translate(7.2 94.069219)scale(0.1 -0.1)">
       <use xlink:href="#DejaVuSans-49"/>
       <use x="63.623047" xlink:href="#DejaVuSans-46"/>
       <use x="95.410156" xlink:href="#DejaVuSans-48"/>
      </g>
     </g>
    </g>
    <g id="ytick_4">
     <g id="line2d_30">
      <g>
       <use style="stroke:#000000;stroke-width:0.8;" x="30.103125" xlink:href="#m6b5b26579c" y="56.295"/>
      </g>
     </g>
     <g id="text_30">
      <!-- 1.5 -->
      <g transform="translate(7.2 60.094219)scale(0.1 -0.1)">
       <use xlink:href="#DejaVuSans-49"/>
       <use x="63.623047" xlink:href="#DejaVuSans-46"/>
       <use x="95.410156" xlink:href="#DejaVuSans-53"/>
      </g>
     </g>
    </g>
    <g id="ytick_5">
     <g id="line2d_31">
      <g>
       <use style="stroke:#000000;stroke-width:0.8;" x="30.103125" xlink:href="#m6b5b26579c" y="22.32"/>
      </g>
     </g>
     <g id="text_31">
      <!-- 2.0 -->
      <defs>
       <path d="M 19.1875 8.296875 
L 53.609375 8.296875 
L 53.609375 0 
L 7.328125 0 
L 7.328125 8.296875 
Q 12.9375 14.109375 22.625 23.890625 
Q 32.328125 33.6875 34.8125 36.53125 
Q 39.546875 41.84375 41.421875 45.53125 
Q 43.3125 49.21875 43.3125 52.78125 
Q 43.3125 58.59375 39.234375 62.25 
Q 35.15625 65.921875 28.609375 65.921875 
Q 23.96875 65.921875 18.8125 64.3125 
Q 13.671875 62.703125 7.8125 59.421875 
L 7.8125 69.390625 
Q 13.765625 71.78125 18.9375 73 
Q 24.125 74.21875 28.421875 74.21875 
Q 39.75 74.21875 46.484375 68.546875 
Q 53.21875 62.890625 53.21875 53.421875 
Q 53.21875 48.921875 51.53125 44.890625 
Q 49.859375 40.875 45.40625 35.40625 
Q 44.1875 33.984375 37.640625 27.21875 
Q 31.109375 20.453125 19.1875 8.296875 
z
" id="DejaVuSans-50"/>
      </defs>
      <g transform="translate(7.2 26.119219)scale(0.1 -0.1)">
       <use xlink:href="#DejaVuSans-50"/>
       <use x="63.623047" xlink:href="#DejaVuSans-46"/>
       <use x="95.410156" xlink:href="#DejaVuSans-48"/>
      </g>
     </g>
    </g>
   </g>
   <g id="LineCollection_1">
    <path clip-path="url(#pd9aac94cf7)" d="M 37.561419 125.604 
L 37.561419 102.501 
" style="fill:none;stroke:#4c4c4c;stroke-opacity:0.5;"/>
    <path clip-path="url(#pd9aac94cf7)" d="M 55.642131 109.296 
L 55.642131 86.193 
" style="fill:none;stroke:#4c4c4c;stroke-opacity:0.5;"/>
    <path clip-path="url(#pd9aac94cf7)" d="M 73.722844 107.2575 
L 73.722844 84.834 
" style="fill:none;stroke:#4c4c4c;stroke-opacity:0.5;"/>
    <path clip-path="url(#pd9aac94cf7)" d="M 91.803556 105.219 
L 91.803556 84.834 
" style="fill:none;stroke:#4c4c4c;stroke-opacity:0.5;"/>
    <path clip-path="url(#pd9aac94cf7)" d="M 109.884269 105.8985 
L 109.884269 83.475 
" style="fill:none;stroke:#4c4c4c;stroke-opacity:0.5;"/>
    <path clip-path="url(#pd9aac94cf7)" d="M 127.964981 104.5395 
L 127.964981 82.116 
" style="fill:none;stroke:#4c4c4c;stroke-opacity:0.5;"/>
    <path clip-path="url(#pd9aac94cf7)" d="M 146.045694 103.86 
L 146.045694 82.116 
" style="fill:none;stroke:#4c4c4c;stroke-opacity:0.5;"/>
    <path clip-path="url(#pd9aac94cf7)" d="M 164.126406 103.1805 
L 164.126406 80.757 
" style="fill:none;stroke:#4c4c4c;stroke-opacity:0.5;"/>
    <path clip-path="url(#pd9aac94cf7)" d="M 182.207119 103.1805 
L 182.207119 80.757 
" style="fill:none;stroke:#4c4c4c;stroke-opacity:0.5;"/>
    <path clip-path="url(#pd9aac94cf7)" d="M 200.287831 102.501 
L 200.287831 80.757 
" style="fill:none;stroke:#4c4c4c;stroke-opacity:0.5;"/>
    <path clip-path="url(#pd9aac94cf7)" d="M 218.368544 100.4625 
L 218.368544 79.398 
" style="fill:none;stroke:#4c4c4c;stroke-opacity:0.5;"/>
    <path clip-path="url(#pd9aac94cf7)" d="M 236.449256 101.142 
L 236.449256 79.398 
" style="fill:none;stroke:#4c4c4c;stroke-opacity:0.5;"/>
    <path clip-path="url(#pd9aac94cf7)" d="M 254.529969 99.783 
L 254.529969 78.039 
" style="fill:none;stroke:#4c4c4c;stroke-opacity:0.5;"/>
    <path clip-path="url(#pd9aac94cf7)" d="M 272.610681 100.4625 
L 272.610681 78.039 
" style="fill:none;stroke:#4c4c4c;stroke-opacity:0.5;"/>
    <path clip-path="url(#pd9aac94cf7)" d="M 290.691394 100.4625 
L 290.691394 77.3595 
" style="fill:none;stroke:#4c4c4c;stroke-opacity:0.5;"/>
    <path clip-path="url(#pd9aac94cf7)" d="M 308.772106 99.783 
L 308.772106 77.3595 
" style="fill:none;stroke:#4c4c4c;stroke-opacity:0.5;"/>
    <path clip-path="url(#pd9aac94cf7)" d="M 326.852819 99.1035 
L 326.852819 77.3595 
" style="fill:none;stroke:#4c4c4c;stroke-opacity:0.5;"/>
    <path clip-path="url(#pd9aac94cf7)" d="M 344.933531 95.0265 
L 344.933531 73.2825 
" style="fill:none;stroke:#4c4c4c;stroke-opacity:0.5;"/>
    <path clip-path="url(#pd9aac94cf7)" d="M 363.014244 94.347 
L 363.014244 73.2825 
" style="fill:none;stroke:#4c4c4c;stroke-opacity:0.5;"/>
    <path clip-path="url(#pd9aac94cf7)" d="M 381.094956 93.6675 
L 381.094956 71.9235 
" style="fill:none;stroke:#4c4c4c;stroke-opacity:0.5;"/>
    <path clip-path="url(#pd9aac94cf7)" d="M 399.175669 92.3085 
L 399.175669 71.244 
" style="fill:none;stroke:#4c4c4c;stroke-opacity:0.5;"/>
    <path clip-path="url(#pd9aac94cf7)" d="M 417.256381 92.988 
L 417.256381 70.5645 
" style="fill:none;stroke:#4c4c4c;stroke-opacity:0.5;"/>
    <path clip-path="url(#pd9aac94cf7)" d="M 435.337094 92.988 
L 435.337094 69.885 
" style="fill:none;stroke:#4c4c4c;stroke-opacity:0.5;"/>
    <path clip-path="url(#pd9aac94cf7)" d="M 453.417806 81.4365 
L 453.417806 59.6925 
" style="fill:none;stroke:#4c4c4c;stroke-opacity:0.5;"/>
    <path clip-path="url(#pd9aac94cf7)" d="M 471.498519 80.757 
L 471.498519 57.654 
" style="fill:none;stroke:#4c4c4c;stroke-opacity:0.5;"/>
    <path clip-path="url(#pd9aac94cf7)" d="M 489.579231 76.68 
L 489.579231 57.654 
" style="fill:none;stroke:#4c4c4c;stroke-opacity:0.5;"/>
   </g>
   <g id="line2d_32">
    <defs>
     <path d="M 2 0 
L -2 -0 
" id="maeae2784e3" style="stroke:#4c4c4c;stroke-opacity:0.5;"/>
    </defs>
    <g clip-path="url(#pd9aac94cf7)">
     <use style="fill:#4c4c4c;fill-opacity:0.5;stroke:#4c4c4c;stroke-opacity:0.5;" x="37.561419" xlink:href="#maeae2784e3" y="125.604"/>
     <use style="fill:#4c4c4c;fill-opacity:0.5;stroke:#4c4c4c;stroke-opacity:0.5;" x="55.642131" xlink:href="#maeae2784e3" y="109.296"/>
     <use style="fill:#4c4c4c;fill-opacity:0.5;stroke:#4c4c4c;stroke-opacity:0.5;" x="73.722844" xlink:href="#maeae2784e3" y="107.2575"/>
     <use style="fill:#4c4c4c;fill-opacity:0.5;stroke:#4c4c4c;stroke-opacity:0.5;" x="91.803556" xlink:href="#maeae2784e3" y="105.219"/>
     <use style="fill:#4c4c4c;fill-opacity:0.5;stroke:#4c4c4c;stroke-opacity:0.5;" x="109.884269" xlink:href="#maeae2784e3" y="105.8985"/>
     <use style="fill:#4c4c4c;fill-opacity:0.5;stroke:#4c4c4c;stroke-opacity:0.5;" x="127.964981" xlink:href="#maeae2784e3" y="104.5395"/>
     <use style="fill:#4c4c4c;fill-opacity:0.5;stroke:#4c4c4c;stroke-opacity:0.5;" x="146.045694" xlink:href="#maeae2784e3" y="103.86"/>
     <use style="fill:#4c4c4c;fill-opacity:0.5;stroke:#4c4c4c;stroke-opacity:0.5;" x="164.126406" xlink:href="#maeae2784e3" y="103.1805"/>
     <use style="fill:#4c4c4c;fill-opacity:0.5;stroke:#4c4c4c;stroke-opacity:0.5;" x="182.207119" xlink:href="#maeae2784e3" y="103.1805"/>
     <use style="fill:#4c4c4c;fill-opacity:0.5;stroke:#4c4c4c;stroke-opacity:0.5;" x="200.287831" xlink:href="#maeae2784e3" y="102.501"/>
     <use style="fill:#4c4c4c;fill-opacity:0.5;stroke:#4c4c4c;stroke-opacity:0.5;" x="218.368544" xlink:href="#maeae2784e3" y="100.4625"/>
     <use style="fill:#4c4c4c;fill-opacity:0.5;stroke:#4c4c4c;stroke-opacity:0.5;" x="236.449256" xlink:href="#maeae2784e3" y="101.142"/>
     <use style="fill:#4c4c4c;fill-opacity:0.5;stroke:#4c4c4c;stroke-opacity:0.5;" x="254.529969" xlink:href="#maeae2784e3" y="99.783"/>
     <use style="fill:#4c4c4c;fill-opacity:0.5;stroke:#4c4c4c;stroke-opacity:0.5;" x="272.610681" xlink:href="#maeae2784e3" y="100.4625"/>
     <use style="fill:#4c4c4c;fill-opacity:0.5;stroke:#4c4c4c;stroke-opacity:0.5;" x="290.691394" xlink:href="#maeae2784e3" y="100.4625"/>
     <use style="fill:#4c4c4c;fill-opacity:0.5;stroke:#4c4c4c;stroke-opacity:0.5;" x="308.772106" xlink:href="#maeae2784e3" y="99.783"/>
     <use style="fill:#4c4c4c;fill-opacity:0.5;stroke:#4c4c4c;stroke-opacity:0.5;" x="326.852819" xlink:href="#maeae2784e3" y="99.1035"/>
     <use style="fill:#4c4c4c;fill-opacity:0.5;stroke:#4c4c4c;stroke-opacity:0.5;" x="344.933531" xlink:href="#maeae2784e3" y="95.0265"/>
     <use style="fill:#4c4c4c;fill-opacity:0.5;stroke:#4c4c4c;stroke-opacity:0.5;" x="363.014244" xlink:href="#maeae2784e3" y="94.347"/>
     <use style="fill:#4c4c4c;fill-opacity:0.5;stroke:#4c4c4c;stroke-opacity:0.5;" x="381.094956" xlink:href="#maeae2784e3" y="93.6675"/>
     <use style="fill:#4c4c4c;fill-opacity:0.5;stroke:#4c4c4c;stroke-opacity:0.5;" x="399.175669" xlink:href="#maeae2784e3" y="92.3085"/>
     <use style="fill:#4c4c4c;fill-opacity:0.5;stroke:#4c4c4c;stroke-opacity:0.5;" x="417.256381" xlink:href="#maeae2784e3" y="92.988"/>
     <use style="fill:#4c4c4c;fill-opacity:0.5;stroke:#4c4c4c;stroke-opacity:0.5;" x="435.337094" xlink:href="#maeae2784e3" y="92.988"/>
     <use style="fill:#4c4c4c;fill-opacity:0.5;stroke:#4c4c4c;stroke-opacity:0.5;" x="453.417806" xlink:href="#maeae2784e3" y="81.4365"/>
     <use style="fill:#4c4c4c;fill-opacity:0.5;stroke:#4c4c4c;stroke-opacity:0.5;" x="471.498519" xlink:href="#maeae2784e3" y="80.757"/>
     <use style="fill:#4c4c4c;fill-opacity:0.5;stroke:#4c4c4c;stroke-opacity:0.5;" x="489.579231" xlink:href="#maeae2784e3" y="76.68"/>
    </g>
   </g>
   <g id="line2d_33">
    <g clip-path="url(#pd9aac94cf7)">
     <use style="fill:#4c4c4c;fill-opacity:0.5;stroke:#4c4c4c;stroke-opacity:0.5;" x="37.561419" xlink:href="#maeae2784e3" y="102.501"/>
     <use style="fill:#4c4c4c;fill-opacity:0.5;stroke:#4c4c4c;stroke-opacity:0.5;" x="55.642131" xlink:href="#maeae2784e3" y="86.193"/>
     <use style="fill:#4c4c4c;fill-opacity:0.5;stroke:#4c4c4c;stroke-opacity:0.5;" x="73.722844" xlink:href="#maeae2784e3" y="84.834"/>
     <use style="fill:#4c4c4c;fill-opacity:0.5;stroke:#4c4c4c;stroke-opacity:0.5;" x="91.803556" xlink:href="#maeae2784e3" y="84.834"/>
     <use style="fill:#4c4c4c;fill-opacity:0.5;stroke:#4c4c4c;stroke-opacity:0.5;" x="109.884269" xlink:href="#maeae2784e3" y="83.475"/>
     <use style="fill:#4c4c4c;fill-opacity:0.5;stroke:#4c4c4c;stroke-opacity:0.5;" x="127.964981" xlink:href="#maeae2784e3" y="82.116"/>
     <use style="fill:#4c4c4c;fill-opacity:0.5;stroke:#4c4c4c;stroke-opacity:0.5;" x="146.045694" xlink:href="#maeae2784e3" y="82.116"/>
     <use style="fill:#4c4c4c;fill-opacity:0.5;stroke:#4c4c4c;stroke-opacity:0.5;" x="164.126406" xlink:href="#maeae2784e3" y="80.757"/>
     <use style="fill:#4c4c4c;fill-opacity:0.5;stroke:#4c4c4c;stroke-opacity:0.5;" x="182.207119" xlink:href="#maeae2784e3" y="80.757"/>
     <use style="fill:#4c4c4c;fill-opacity:0.5;stroke:#4c4c4c;stroke-opacity:0.5;" x="200.287831" xlink:href="#maeae2784e3" y="80.757"/>
     <use style="fill:#4c4c4c;fill-opacity:0.5;stroke:#4c4c4c;stroke-opacity:0.5;" x="218.368544" xlink:href="#maeae2784e3" y="79.398"/>
     <use style="fill:#4c4c4c;fill-opacity:0.5;stroke:#4c4c4c;stroke-opacity:0.5;" x="236.449256" xlink:href="#maeae2784e3" y="79.398"/>
     <use style="fill:#4c4c4c;fill-opacity:0.5;stroke:#4c4c4c;stroke-opacity:0.5;" x="254.529969" xlink:href="#maeae2784e3" y="78.039"/>
     <use style="fill:#4c4c4c;fill-opacity:0.5;stroke:#4c4c4c;stroke-opacity:0.5;" x="272.610681" xlink:href="#maeae2784e3" y="78.039"/>
     <use style="fill:#4c4c4c;fill-opacity:0.5;stroke:#4c4c4c;stroke-opacity:0.5;" x="290.691394" xlink:href="#maeae2784e3" y="77.3595"/>
     <use style="fill:#4c4c4c;fill-opacity:0.5;stroke:#4c4c4c;stroke-opacity:0.5;" x="308.772106" xlink:href="#maeae2784e3" y="77.3595"/>
     <use style="fill:#4c4c4c;fill-opacity:0.5;stroke:#4c4c4c;stroke-opacity:0.5;" x="326.852819" xlink:href="#maeae2784e3" y="77.3595"/>
     <use style="fill:#4c4c4c;fill-opacity:0.5;stroke:#4c4c4c;stroke-opacity:0.5;" x="344.933531" xlink:href="#maeae2784e3" y="73.2825"/>
     <use style="fill:#4c4c4c;fill-opacity:0.5;stroke:#4c4c4c;stroke-opacity:0.5;" x="363.014244" xlink:href="#maeae2784e3" y="73.2825"/>
     <use style="fill:#4c4c4c;fill-opacity:0.5;stroke:#4c4c4c;stroke-opacity:0.5;" x="381.094956" xlink:href="#maeae2784e3" y="71.9235"/>
     <use style="fill:#4c4c4c;fill-opacity:0.5;stroke:#4c4c4c;stroke-opacity:0.5;" x="399.175669" xlink:href="#maeae2784e3" y="71.244"/>
     <use style="fill:#4c4c4c;fill-opacity:0.5;stroke:#4c4c4c;stroke-opacity:0.5;" x="417.256381" xlink:href="#maeae2784e3" y="70.5645"/>
     <use style="fill:#4c4c4c;fill-opacity:0.5;stroke:#4c4c4c;stroke-opacity:0.5;" x="435.337094" xlink:href="#maeae2784e3" y="69.885"/>
     <use style="fill:#4c4c4c;fill-opacity:0.5;stroke:#4c4c4c;stroke-opacity:0.5;" x="453.417806" xlink:href="#maeae2784e3" y="59.6925"/>
     <use style="fill:#4c4c4c;fill-opacity:0.5;stroke:#4c4c4c;stroke-opacity:0.5;" x="471.498519" xlink:href="#maeae2784e3" y="57.654"/>
     <use style="fill:#4c4c4c;fill-opacity:0.5;stroke:#4c4c4c;stroke-opacity:0.5;" x="489.579231" xlink:href="#maeae2784e3" y="57.654"/>
    </g>
   </g>
   <g id="line2d_34">
    <path clip-path="url(#pd9aac94cf7)" d="M 30.103125 90.27 
L 497.037525 90.27 
" style="fill:none;stroke:#000000;stroke-dasharray:1,1.65;stroke-dashoffset:0;"/>
   </g>
   <g id="patch_29">
    <path d="M 30.103125 158.22 
L 30.103125 22.32 
" style="fill:none;stroke:#000000;stroke-linecap:square;stroke-linejoin:miter;stroke-width:0.8;"/>
   </g>
   <g id="patch_30">
    <path d="M 497.037525 158.22 
L 497.037525 22.32 
" style="fill:none;stroke:#000000;stroke-linecap:square;stroke-linejoin:miter;stroke-width:0.8;"/>
   </g>
   <g id="patch_31">
    <path d="M 30.103125 158.22 
L 497.037525 158.22 
" style="fill:none;stroke:#000000;stroke-linecap:square;stroke-linejoin:miter;stroke-width:0.8;"/>
   </g>
   <g id="patch_32">
    <path d="M 30.103125 22.32 
L 497.037525 22.32 
" style="fill:none;stroke:#000000;stroke-linecap:square;stroke-linejoin:miter;stroke-width:0.8;"/>
   </g>
   <g id="text_32">
    <!-- Most Recent $R_t$ by County -->
    <defs>
     <path d="M 30.609375 48.390625 
Q 23.390625 48.390625 19.1875 42.75 
Q 14.984375 37.109375 14.984375 27.296875 
Q 14.984375 17.484375 19.15625 11.84375 
Q 23.34375 6.203125 30.609375 6.203125 
Q 37.796875 6.203125 41.984375 11.859375 
Q 46.1875 17.53125 46.1875 27.296875 
Q 46.1875 37.015625 41.984375 42.703125 
Q 37.796875 48.390625 30.609375 48.390625 
z
M 30.609375 56 
Q 42.328125 56 49.015625 48.375 
Q 55.71875 40.765625 55.71875 27.296875 
Q 55.71875 13.875 49.015625 6.21875 
Q 42.328125 -1.421875 30.609375 -1.421875 
Q 18.84375 -1.421875 12.171875 6.21875 
Q 5.515625 13.875 5.515625 27.296875 
Q 5.515625 40.765625 12.171875 48.375 
Q 18.84375 56 30.609375 56 
z
" id="DejaVuSans-111"/>
     <path d="M 25.203125 64.796875 
L 20.21875 38.921875 
L 32.90625 38.921875 
Q 40.375 38.921875 44.984375 43.046875 
Q 49.609375 47.171875 49.609375 53.8125 
Q 49.609375 59.125 46.5 61.953125 
Q 43.40625 64.796875 37.59375 64.796875 
z
M 43.3125 35.015625 
Q 46.4375 34.28125 48.515625 31.390625 
Q 50.59375 28.515625 53.328125 19.921875 
L 59.515625 0 
L 49.125 0 
L 43.40625 18.703125 
Q 41.21875 25.921875 38.328125 28.359375 
Q 35.453125 30.8125 29.5 30.8125 
L 18.609375 30.8125 
L 12.59375 0 
L 2.6875 0 
L 16.890625 72.90625 
L 39.109375 72.90625 
Q 49.21875 72.90625 54.609375 68.328125 
Q 60.015625 63.765625 60.015625 55.171875 
Q 60.015625 47.5625 55.421875 41.984375 
Q 50.828125 36.421875 43.3125 35.015625 
z
" id="DejaVuSans-Oblique-82"/>
     <path d="M 42.28125 54.6875 
L 40.921875 47.703125 
L 23 47.703125 
L 17.1875 18.015625 
Q 16.890625 16.359375 16.75 15.234375 
Q 16.609375 14.109375 16.609375 13.484375 
Q 16.609375 10.359375 18.484375 8.9375 
Q 20.359375 7.515625 24.515625 7.515625 
L 33.59375 7.515625 
L 32.078125 0 
L 23.484375 0 
Q 15.484375 0 11.546875 3.125 
Q 7.625 6.25 7.625 12.59375 
Q 7.625 13.71875 7.765625 15.0625 
Q 7.90625 16.40625 8.203125 18.015625 
L 14.015625 47.703125 
L 6.390625 47.703125 
L 7.8125 54.6875 
L 15.28125 54.6875 
L 18.3125 70.21875 
L 27.296875 70.21875 
L 24.3125 54.6875 
z
" id="DejaVuSans-Oblique-116"/>
    </defs>
    <g transform="translate(185.870325 16.32)scale(0.12 -0.12)">
     <use transform="translate(0 0.015625)" xlink:href="#DejaVuSans-77"/>
     <use transform="translate(86.279297 0.015625)" xlink:href="#DejaVuSans-111"/>
     <use transform="translate(147.460938 0.015625)" xlink:href="#DejaVuSans-115"/>
     <use transform="translate(199.560547 0.015625)" xlink:href="#DejaVuSans-116"/>
     <use transform="translate(238.769531 0.015625)" xlink:href="#DejaVuSans-32"/>
     <use transform="translate(270.556641 0.015625)" xlink:href="#DejaVuSans-82"/>
     <use transform="translate(340.039062 0.015625)" xlink:href="#DejaVuSans-101"/>
     <use transform="translate(401.5625 0.015625)" xlink:href="#DejaVuSans-99"/>
     <use transform="translate(456.542969 0.015625)" xlink:href="#DejaVuSans-101"/>
     <use transform="translate(518.066406 0.015625)" xlink:href="#DejaVuSans-110"/>
     <use transform="translate(581.445312 0.015625)" xlink:href="#DejaVuSans-116"/>
     <use transform="translate(620.654297 0.015625)" xlink:href="#DejaVuSans-32"/>
     <use transform="translate(652.441406 0.015625)" xlink:href="#DejaVuSans-Oblique-82"/>
     <use transform="translate(721.923828 -16.390625)scale(0.7)" xlink:href="#DejaVuSans-Oblique-116"/>
     <use transform="translate(752.104492 0.015625)" xlink:href="#DejaVuSans-32"/>
     <use transform="translate(783.891602 0.015625)" xlink:href="#DejaVuSans-98"/>
     <use transform="translate(847.368164 0.015625)" xlink:href="#DejaVuSans-121"/>
     <use transform="translate(906.547852 0.015625)" xlink:href="#DejaVuSans-32"/>
     <use transform="translate(938.334961 0.015625)" xlink:href="#DejaVuSans-67"/>
     <use transform="translate(1008.15918 0.015625)" xlink:href="#DejaVuSans-111"/>
     <use transform="translate(1069.34082 0.015625)" xlink:href="#DejaVuSans-117"/>
     <use transform="translate(1132.719727 0.015625)" xlink:href="#DejaVuSans-110"/>
     <use transform="translate(1196.098633 0.015625)" xlink:href="#DejaVuSans-116"/>
     <use transform="translate(1235.307617 0.015625)" xlink:href="#DejaVuSans-121"/>
    </g>
   </g>
  </g>
 </g>
 <defs>
  <clipPath id="pd9aac94cf7">
   <rect height="135.9" width="466.9344" x="30.103125" y="22.32"/>
  </clipPath>
 </defs>
</svg>
