<?xml version="1.0" encoding="utf-8" standalone="no"?>
<!DOCTYPE svg PUBLIC "-//W3C//DTD SVG 1.1//EN"
  "http://www.w3.org/Graphics/SVG/1.1/DTD/svg11.dtd">
<!-- Created with matplotlib (https://matplotlib.org/) -->
<svg height="400pt" version="1.1" viewBox="0 0 600 400" width="600pt" xmlns="http://www.w3.org/2000/svg" xmlns:xlink="http://www.w3.org/1999/xlink">
 <defs>
  <style type="text/css">
*{stroke-linecap:butt;stroke-linejoin:round;}
  </style>
 </defs>
 <g id="figure_1">
  <g id="patch_1">
   <path d="M 0 400 
L 600 400 
L 600 0 
L 0 0 
z
" style="fill:#ffffff;"/>
  </g>
  <g id="axes_1">
   <g id="patch_2">
    <path d="M 75 350 
L 540 350 
L 540 48 
L 75 48 
z
" style="fill:#ffffff;"/>
   </g>
   <g id="line2d_1">
    <path clip-path="url(#p222988bfbe)" d="M -1 337.868043 
L 3.035714 169.806667 
L 8.571429 175.846667 
L 14.107143 204.033333 
L 19.642857 218.126667 
L 25.178571 239.266667 
L 30.714286 244.3 
L 36.25 252.353333 
L 41.785714 263.426667 
L 47.321429 262.42 
L 52.857143 261.413333 
L 58.392857 229.2 
L 63.928571 195.98 
L 69.464286 208.06 
L 75 215.106667 
L 80.535714 234.233333 
L 86.071429 232.22 
L 91.607143 236.246667 
L 97.142857 244.3 
L 102.678571 249.333333 
L 108.214286 257.386667 
L 113.75 275.506667 
L 119.285714 283.56 
L 124.821429 282.553333 
L 130.357143 271.48 
L 135.892857 275.506667 
L 141.428571 279.533333 
L 146.964286 287.586667 
L 152.5 286.58 
L 158.035714 272.486667 
L 163.571429 277.52 
L 169.107143 269.466667 
L 174.642857 275.506667 
L 180.178571 282.553333 
L 185.714286 287.586667 
L 191.25 287.586667 
L 196.785714 289.6 
L 202.321429 283.56 
L 207.857143 287.586667 
L 213.392857 288.593333 
L 218.928571 291.613333 
L 224.464286 282.553333 
L 230 277.52 
L 235.535714 267.453333 
L 241.071429 252.353333 
L 246.607143 254.366667 
L 252.142857 255.373333 
L 257.678571 265.44 
L 263.214286 279.533333 
L 268.75 290.606667 
L 274.285714 290.606667 
L 279.821429 294.633333 
L 285.357143 289.6 
L 290.892857 291.613333 
L 296.428571 291.613333 
L 301.964286 294.633333 
L 307.5 288.593333 
L 313.035714 285.573333 
L 318.571429 278.526667 
L 324.107143 270.473333 
L 329.642857 272.486667 
L 335.178571 273.493333 
L 340.714286 273.493333 
L 346.25 278.526667 
L 351.785714 278.526667 
L 357.321429 282.553333 
L 362.857143 293.626667 
L 368.392857 293.626667 
L 373.928571 295.64 
L 379.464286 291.613333 
L 385 284.566667 
L 390.535714 279.533333 
L 396.071429 280.54 
L 401.607143 282.553333 
L 407.142857 287.586667 
L 412.678571 286.58 
L 418.214286 287.586667 
L 423.75 284.566667 
L 429.285714 284.566667 
L 434.821429 290.606667 
L 440.357143 294.633333 
L 445.892857 298.66 
L 451.428571 297.653333 
L 456.964286 292.62 
L 462.5 288.593333 
L 468.035714 286.58 
L 473.571429 287.586667 
L 479.107143 295.64 
L 484.642857 295.64 
L 490.178571 292.62 
L 495.714286 286.58 
L 501.25 278.526667 
L 506.785714 276.513333 
L 512.321429 278.526667 
L 517.857143 283.56 
L 523.392857 290.606667 
L 528.928571 293.626667 
L 534.464286 295.64 
" style="fill:none;stroke:#000000;stroke-linecap:square;stroke-opacity:0.25;stroke-width:1.5;"/>
   </g>
   <g id="matplotlib.axis_1">
    <g id="xtick_1">
     <g id="line2d_2">
      <defs>
       <path d="M 0 0 
L 0 3.5 
" id="mfaef3d8499" style="stroke:#000000;stroke-width:0.8;"/>
      </defs>
      <g>
       <use style="stroke:#000000;stroke-width:0.8;" x="108.214286" xlink:href="#mfaef3d8499" y="350"/>
      </g>
     </g>
     <g id="text_1">
      <!-- Apr 07 -->
      <defs>
       <path d="M 34.1875 63.1875 
L 20.796875 26.90625 
L 47.609375 26.90625 
z
M 28.609375 72.90625 
L 39.796875 72.90625 
L 67.578125 0 
L 57.328125 0 
L 50.6875 18.703125 
L 17.828125 18.703125 
L 11.1875 0 
L 0.78125 0 
z
" id="DejaVuSans-65"/>
       <path d="M 18.109375 8.203125 
L 18.109375 -20.796875 
L 9.078125 -20.796875 
L 9.078125 54.6875 
L 18.109375 54.6875 
L 18.109375 46.390625 
Q 20.953125 51.265625 25.265625 53.625 
Q 29.59375 56 35.59375 56 
Q 45.5625 56 51.78125 48.09375 
Q 58.015625 40.1875 58.015625 27.296875 
Q 58.015625 14.40625 51.78125 6.484375 
Q 45.5625 -1.421875 35.59375 -1.421875 
Q 29.59375 -1.421875 25.265625 0.953125 
Q 20.953125 3.328125 18.109375 8.203125 
z
M 48.6875 27.296875 
Q 48.6875 37.203125 44.609375 42.84375 
Q 40.53125 48.484375 33.40625 48.484375 
Q 26.265625 48.484375 22.1875 42.84375 
Q 18.109375 37.203125 18.109375 27.296875 
Q 18.109375 17.390625 22.1875 11.75 
Q 26.265625 6.109375 33.40625 6.109375 
Q 40.53125 6.109375 44.609375 11.75 
Q 48.6875 17.390625 48.6875 27.296875 
z
" id="DejaVuSans-112"/>
       <path d="M 41.109375 46.296875 
Q 39.59375 47.171875 37.8125 47.578125 
Q 36.03125 48 33.890625 48 
Q 26.265625 48 22.1875 43.046875 
Q 18.109375 38.09375 18.109375 28.8125 
L 18.109375 0 
L 9.078125 0 
L 9.078125 54.6875 
L 18.109375 54.6875 
L 18.109375 46.1875 
Q 20.953125 51.171875 25.484375 53.578125 
Q 30.03125 56 36.53125 56 
Q 37.453125 56 38.578125 55.875 
Q 39.703125 55.765625 41.0625 55.515625 
z
" id="DejaVuSans-114"/>
       <path id="DejaVuSans-32"/>
       <path d="M 31.78125 66.40625 
Q 24.171875 66.40625 20.328125 58.90625 
Q 16.5 51.421875 16.5 36.375 
Q 16.5 21.390625 20.328125 13.890625 
Q 24.171875 6.390625 31.78125 6.390625 
Q 39.453125 6.390625 43.28125 13.890625 
Q 47.125 21.390625 47.125 36.375 
Q 47.125 51.421875 43.28125 58.90625 
Q 39.453125 66.40625 31.78125 66.40625 
z
M 31.78125 74.21875 
Q 44.046875 74.21875 50.515625 64.515625 
Q 56.984375 54.828125 56.984375 36.375 
Q 56.984375 17.96875 50.515625 8.265625 
Q 44.046875 -1.421875 31.78125 -1.421875 
Q 19.53125 -1.421875 13.0625 8.265625 
Q 6.59375 17.96875 6.59375 36.375 
Q 6.59375 54.828125 13.0625 64.515625 
Q 19.53125 74.21875 31.78125 74.21875 
z
" id="DejaVuSans-48"/>
       <path d="M 8.203125 72.90625 
L 55.078125 72.90625 
L 55.078125 68.703125 
L 28.609375 0 
L 18.3125 0 
L 43.21875 64.59375 
L 8.203125 64.59375 
z
" id="DejaVuSans-55"/>
      </defs>
      <g transform="translate(91.612723 364.598437)scale(0.1 -0.1)">
       <use xlink:href="#DejaVuSans-65"/>
       <use x="68.408203" xlink:href="#DejaVuSans-112"/>
       <use x="131.884766" xlink:href="#DejaVuSans-114"/>
       <use x="172.998047" xlink:href="#DejaVuSans-32"/>
       <use x="204.785156" xlink:href="#DejaVuSans-48"/>
       <use x="268.408203" xlink:href="#DejaVuSans-55"/>
      </g>
     </g>
    </g>
    <g id="xtick_2">
     <g id="line2d_3">
      <g>
       <use style="stroke:#000000;stroke-width:0.8;" x="146.964286" xlink:href="#mfaef3d8499" y="350"/>
      </g>
     </g>
     <g id="text_2">
      <!-- Apr 14 -->
      <defs>
       <path d="M 12.40625 8.296875 
L 28.515625 8.296875 
L 28.515625 63.921875 
L 10.984375 60.40625 
L 10.984375 69.390625 
L 28.421875 72.90625 
L 38.28125 72.90625 
L 38.28125 8.296875 
L 54.390625 8.296875 
L 54.390625 0 
L 12.40625 0 
z
" id="DejaVuSans-49"/>
       <path d="M 37.796875 64.3125 
L 12.890625 25.390625 
L 37.796875 25.390625 
z
M 35.203125 72.90625 
L 47.609375 72.90625 
L 47.609375 25.390625 
L 58.015625 25.390625 
L 58.015625 17.1875 
L 47.609375 17.1875 
L 47.609375 0 
L 37.796875 0 
L 37.796875 17.1875 
L 4.890625 17.1875 
L 4.890625 26.703125 
z
" id="DejaVuSans-52"/>
      </defs>
      <g transform="translate(130.362723 364.598437)scale(0.1 -0.1)">
       <use xlink:href="#DejaVuSans-65"/>
       <use x="68.408203" xlink:href="#DejaVuSans-112"/>
       <use x="131.884766" xlink:href="#DejaVuSans-114"/>
       <use x="172.998047" xlink:href="#DejaVuSans-32"/>
       <use x="204.785156" xlink:href="#DejaVuSans-49"/>
       <use x="268.408203" xlink:href="#DejaVuSans-52"/>
      </g>
     </g>
    </g>
    <g id="xtick_3">
     <g id="line2d_4">
      <g>
       <use style="stroke:#000000;stroke-width:0.8;" x="185.714286" xlink:href="#mfaef3d8499" y="350"/>
      </g>
     </g>
     <g id="text_3">
      <!-- Apr 21 -->
      <defs>
       <path d="M 19.1875 8.296875 
L 53.609375 8.296875 
L 53.609375 0 
L 7.328125 0 
L 7.328125 8.296875 
Q 12.9375 14.109375 22.625 23.890625 
Q 32.328125 33.6875 34.8125 36.53125 
Q 39.546875 41.84375 41.421875 45.53125 
Q 43.3125 49.21875 43.3125 52.78125 
Q 43.3125 58.59375 39.234375 62.25 
Q 35.15625 65.921875 28.609375 65.921875 
Q 23.96875 65.921875 18.8125 64.3125 
Q 13.671875 62.703125 7.8125 59.421875 
L 7.8125 69.390625 
Q 13.765625 71.78125 18.9375 73 
Q 24.125 74.21875 28.421875 74.21875 
Q 39.75 74.21875 46.484375 68.546875 
Q 53.21875 62.890625 53.21875 53.421875 
Q 53.21875 48.921875 51.53125 44.890625 
Q 49.859375 40.875 45.40625 35.40625 
Q 44.1875 33.984375 37.640625 27.21875 
Q 31.109375 20.453125 19.1875 8.296875 
z
" id="DejaVuSans-50"/>
      </defs>
      <g transform="translate(169.112723 364.598437)scale(0.1 -0.1)">
       <use xlink:href="#DejaVuSans-65"/>
       <use x="68.408203" xlink:href="#DejaVuSans-112"/>
       <use x="131.884766" xlink:href="#DejaVuSans-114"/>
       <use x="172.998047" xlink:href="#DejaVuSans-32"/>
       <use x="204.785156" xlink:href="#DejaVuSans-50"/>
       <use x="268.408203" xlink:href="#DejaVuSans-49"/>
      </g>
     </g>
    </g>
    <g id="xtick_4">
     <g id="line2d_5">
      <g>
       <use style="stroke:#000000;stroke-width:0.8;" x="224.464286" xlink:href="#mfaef3d8499" y="350"/>
      </g>
     </g>
     <g id="text_4">
      <!-- Apr 28 -->
      <defs>
       <path d="M 31.78125 34.625 
Q 24.75 34.625 20.71875 30.859375 
Q 16.703125 27.09375 16.703125 20.515625 
Q 16.703125 13.921875 20.71875 10.15625 
Q 24.75 6.390625 31.78125 6.390625 
Q 38.8125 6.390625 42.859375 10.171875 
Q 46.921875 13.96875 46.921875 20.515625 
Q 46.921875 27.09375 42.890625 30.859375 
Q 38.875 34.625 31.78125 34.625 
z
M 21.921875 38.8125 
Q 15.578125 40.375 12.03125 44.71875 
Q 8.5 49.078125 8.5 55.328125 
Q 8.5 64.0625 14.71875 69.140625 
Q 20.953125 74.21875 31.78125 74.21875 
Q 42.671875 74.21875 48.875 69.140625 
Q 55.078125 64.0625 55.078125 55.328125 
Q 55.078125 49.078125 51.53125 44.71875 
Q 48 40.375 41.703125 38.8125 
Q 48.828125 37.15625 52.796875 32.3125 
Q 56.78125 27.484375 56.78125 20.515625 
Q 56.78125 9.90625 50.3125 4.234375 
Q 43.84375 -1.421875 31.78125 -1.421875 
Q 19.734375 -1.421875 13.25 4.234375 
Q 6.78125 9.90625 6.78125 20.515625 
Q 6.78125 27.484375 10.78125 32.3125 
Q 14.796875 37.15625 21.921875 38.8125 
z
M 18.3125 54.390625 
Q 18.3125 48.734375 21.84375 45.5625 
Q 25.390625 42.390625 31.78125 42.390625 
Q 38.140625 42.390625 41.71875 45.5625 
Q 45.3125 48.734375 45.3125 54.390625 
Q 45.3125 60.0625 41.71875 63.234375 
Q 38.140625 66.40625 31.78125 66.40625 
Q 25.390625 66.40625 21.84375 63.234375 
Q 18.3125 60.0625 18.3125 54.390625 
z
" id="DejaVuSans-56"/>
      </defs>
      <g transform="translate(207.862723 364.598437)scale(0.1 -0.1)">
       <use xlink:href="#DejaVuSans-65"/>
       <use x="68.408203" xlink:href="#DejaVuSans-112"/>
       <use x="131.884766" xlink:href="#DejaVuSans-114"/>
       <use x="172.998047" xlink:href="#DejaVuSans-32"/>
       <use x="204.785156" xlink:href="#DejaVuSans-50"/>
       <use x="268.408203" xlink:href="#DejaVuSans-56"/>
      </g>
     </g>
    </g>
    <g id="xtick_5">
     <g id="line2d_6">
      <g>
       <use style="stroke:#000000;stroke-width:0.8;" x="263.214286" xlink:href="#mfaef3d8499" y="350"/>
      </g>
     </g>
     <g id="text_5">
      <!-- May 05 -->
      <defs>
       <path d="M 9.8125 72.90625 
L 24.515625 72.90625 
L 43.109375 23.296875 
L 61.8125 72.90625 
L 76.515625 72.90625 
L 76.515625 0 
L 66.890625 0 
L 66.890625 64.015625 
L 48.09375 14.015625 
L 38.1875 14.015625 
L 19.390625 64.015625 
L 19.390625 0 
L 9.8125 0 
z
" id="DejaVuSans-77"/>
       <path d="M 34.28125 27.484375 
Q 23.390625 27.484375 19.1875 25 
Q 14.984375 22.515625 14.984375 16.5 
Q 14.984375 11.71875 18.140625 8.90625 
Q 21.296875 6.109375 26.703125 6.109375 
Q 34.1875 6.109375 38.703125 11.40625 
Q 43.21875 16.703125 43.21875 25.484375 
L 43.21875 27.484375 
z
M 52.203125 31.203125 
L 52.203125 0 
L 43.21875 0 
L 43.21875 8.296875 
Q 40.140625 3.328125 35.546875 0.953125 
Q 30.953125 -1.421875 24.3125 -1.421875 
Q 15.921875 -1.421875 10.953125 3.296875 
Q 6 8.015625 6 15.921875 
Q 6 25.140625 12.171875 29.828125 
Q 18.359375 34.515625 30.609375 34.515625 
L 43.21875 34.515625 
L 43.21875 35.40625 
Q 43.21875 41.609375 39.140625 45 
Q 35.0625 48.390625 27.6875 48.390625 
Q 23 48.390625 18.546875 47.265625 
Q 14.109375 46.140625 10.015625 43.890625 
L 10.015625 52.203125 
Q 14.9375 54.109375 19.578125 55.046875 
Q 24.21875 56 28.609375 56 
Q 40.484375 56 46.34375 49.84375 
Q 52.203125 43.703125 52.203125 31.203125 
z
" id="DejaVuSans-97"/>
       <path d="M 32.171875 -5.078125 
Q 28.375 -14.84375 24.75 -17.8125 
Q 21.140625 -20.796875 15.09375 -20.796875 
L 7.90625 -20.796875 
L 7.90625 -13.28125 
L 13.1875 -13.28125 
Q 16.890625 -13.28125 18.9375 -11.515625 
Q 21 -9.765625 23.484375 -3.21875 
L 25.09375 0.875 
L 2.984375 54.6875 
L 12.5 54.6875 
L 29.59375 11.921875 
L 46.6875 54.6875 
L 56.203125 54.6875 
z
" id="DejaVuSans-121"/>
       <path d="M 10.796875 72.90625 
L 49.515625 72.90625 
L 49.515625 64.59375 
L 19.828125 64.59375 
L 19.828125 46.734375 
Q 21.96875 47.46875 24.109375 47.828125 
Q 26.265625 48.1875 28.421875 48.1875 
Q 40.625 48.1875 47.75 41.5 
Q 54.890625 34.8125 54.890625 23.390625 
Q 54.890625 11.625 47.5625 5.09375 
Q 40.234375 -1.421875 26.90625 -1.421875 
Q 22.3125 -1.421875 17.546875 -0.640625 
Q 12.796875 0.140625 7.71875 1.703125 
L 7.71875 11.625 
Q 12.109375 9.234375 16.796875 8.0625 
Q 21.484375 6.890625 26.703125 6.890625 
Q 35.15625 6.890625 40.078125 11.328125 
Q 45.015625 15.765625 45.015625 23.390625 
Q 45.015625 31 40.078125 35.4375 
Q 35.15625 39.890625 26.703125 39.890625 
Q 22.75 39.890625 18.8125 39.015625 
Q 14.890625 38.140625 10.796875 36.28125 
z
" id="DejaVuSans-53"/>
      </defs>
      <g transform="translate(244.925223 364.598437)scale(0.1 -0.1)">
       <use xlink:href="#DejaVuSans-77"/>
       <use x="86.279297" xlink:href="#DejaVuSans-97"/>
       <use x="147.558594" xlink:href="#DejaVuSans-121"/>
       <use x="206.738281" xlink:href="#DejaVuSans-32"/>
       <use x="238.525391" xlink:href="#DejaVuSans-48"/>
       <use x="302.148438" xlink:href="#DejaVuSans-53"/>
      </g>
     </g>
    </g>
    <g id="xtick_6">
     <g id="line2d_7">
      <g>
       <use style="stroke:#000000;stroke-width:0.8;" x="301.964286" xlink:href="#mfaef3d8499" y="350"/>
      </g>
     </g>
     <g id="text_6">
      <!-- May 12 -->
      <g transform="translate(283.675223 364.598437)scale(0.1 -0.1)">
       <use xlink:href="#DejaVuSans-77"/>
       <use x="86.279297" xlink:href="#DejaVuSans-97"/>
       <use x="147.558594" xlink:href="#DejaVuSans-121"/>
       <use x="206.738281" xlink:href="#DejaVuSans-32"/>
       <use x="238.525391" xlink:href="#DejaVuSans-49"/>
       <use x="302.148438" xlink:href="#DejaVuSans-50"/>
      </g>
     </g>
    </g>
    <g id="xtick_7">
     <g id="line2d_8">
      <g>
       <use style="stroke:#000000;stroke-width:0.8;" x="340.714286" xlink:href="#mfaef3d8499" y="350"/>
      </g>
     </g>
     <g id="text_7">
      <!-- May 19 -->
      <defs>
       <path d="M 10.984375 1.515625 
L 10.984375 10.5 
Q 14.703125 8.734375 18.5 7.8125 
Q 22.3125 6.890625 25.984375 6.890625 
Q 35.75 6.890625 40.890625 13.453125 
Q 46.046875 20.015625 46.78125 33.40625 
Q 43.953125 29.203125 39.59375 26.953125 
Q 35.25 24.703125 29.984375 24.703125 
Q 19.046875 24.703125 12.671875 31.3125 
Q 6.296875 37.9375 6.296875 49.421875 
Q 6.296875 60.640625 12.9375 67.421875 
Q 19.578125 74.21875 30.609375 74.21875 
Q 43.265625 74.21875 49.921875 64.515625 
Q 56.59375 54.828125 56.59375 36.375 
Q 56.59375 19.140625 48.40625 8.859375 
Q 40.234375 -1.421875 26.421875 -1.421875 
Q 22.703125 -1.421875 18.890625 -0.6875 
Q 15.09375 0.046875 10.984375 1.515625 
z
M 30.609375 32.421875 
Q 37.25 32.421875 41.125 36.953125 
Q 45.015625 41.5 45.015625 49.421875 
Q 45.015625 57.28125 41.125 61.84375 
Q 37.25 66.40625 30.609375 66.40625 
Q 23.96875 66.40625 20.09375 61.84375 
Q 16.21875 57.28125 16.21875 49.421875 
Q 16.21875 41.5 20.09375 36.953125 
Q 23.96875 32.421875 30.609375 32.421875 
z
" id="DejaVuSans-57"/>
      </defs>
      <g transform="translate(322.425223 364.598437)scale(0.1 -0.1)">
       <use xlink:href="#DejaVuSans-77"/>
       <use x="86.279297" xlink:href="#DejaVuSans-97"/>
       <use x="147.558594" xlink:href="#DejaVuSans-121"/>
       <use x="206.738281" xlink:href="#DejaVuSans-32"/>
       <use x="238.525391" xlink:href="#DejaVuSans-49"/>
       <use x="302.148438" xlink:href="#DejaVuSans-57"/>
      </g>
     </g>
    </g>
    <g id="xtick_8">
     <g id="line2d_9">
      <g>
       <use style="stroke:#000000;stroke-width:0.8;" x="379.464286" xlink:href="#mfaef3d8499" y="350"/>
      </g>
     </g>
     <g id="text_8">
      <!-- May 26 -->
      <defs>
       <path d="M 33.015625 40.375 
Q 26.375 40.375 22.484375 35.828125 
Q 18.609375 31.296875 18.609375 23.390625 
Q 18.609375 15.53125 22.484375 10.953125 
Q 26.375 6.390625 33.015625 6.390625 
Q 39.65625 6.390625 43.53125 10.953125 
Q 47.40625 15.53125 47.40625 23.390625 
Q 47.40625 31.296875 43.53125 35.828125 
Q 39.65625 40.375 33.015625 40.375 
z
M 52.59375 71.296875 
L 52.59375 62.3125 
Q 48.875 64.0625 45.09375 64.984375 
Q 41.3125 65.921875 37.59375 65.921875 
Q 27.828125 65.921875 22.671875 59.328125 
Q 17.53125 52.734375 16.796875 39.40625 
Q 19.671875 43.65625 24.015625 45.921875 
Q 28.375 48.1875 33.59375 48.1875 
Q 44.578125 48.1875 50.953125 41.515625 
Q 57.328125 34.859375 57.328125 23.390625 
Q 57.328125 12.15625 50.6875 5.359375 
Q 44.046875 -1.421875 33.015625 -1.421875 
Q 20.359375 -1.421875 13.671875 8.265625 
Q 6.984375 17.96875 6.984375 36.375 
Q 6.984375 53.65625 15.1875 63.9375 
Q 23.390625 74.21875 37.203125 74.21875 
Q 40.921875 74.21875 44.703125 73.484375 
Q 48.484375 72.75 52.59375 71.296875 
z
" id="DejaVuSans-54"/>
      </defs>
      <g transform="translate(361.175223 364.598437)scale(0.1 -0.1)">
       <use xlink:href="#DejaVuSans-77"/>
       <use x="86.279297" xlink:href="#DejaVuSans-97"/>
       <use x="147.558594" xlink:href="#DejaVuSans-121"/>
       <use x="206.738281" xlink:href="#DejaVuSans-32"/>
       <use x="238.525391" xlink:href="#DejaVuSans-50"/>
       <use x="302.148438" xlink:href="#DejaVuSans-54"/>
      </g>
     </g>
    </g>
    <g id="xtick_9">
     <g id="line2d_10">
      <g>
       <use style="stroke:#000000;stroke-width:0.8;" x="418.214286" xlink:href="#mfaef3d8499" y="350"/>
      </g>
     </g>
     <g id="text_9">
      <!-- Jun 02 -->
      <defs>
       <path d="M 9.8125 72.90625 
L 19.671875 72.90625 
L 19.671875 5.078125 
Q 19.671875 -8.109375 14.671875 -14.0625 
Q 9.671875 -20.015625 -1.421875 -20.015625 
L -5.171875 -20.015625 
L -5.171875 -11.71875 
L -2.09375 -11.71875 
Q 4.4375 -11.71875 7.125 -8.046875 
Q 9.8125 -4.390625 9.8125 5.078125 
z
" id="DejaVuSans-74"/>
       <path d="M 8.5 21.578125 
L 8.5 54.6875 
L 17.484375 54.6875 
L 17.484375 21.921875 
Q 17.484375 14.15625 20.5 10.265625 
Q 23.53125 6.390625 29.59375 6.390625 
Q 36.859375 6.390625 41.078125 11.03125 
Q 45.3125 15.671875 45.3125 23.6875 
L 45.3125 54.6875 
L 54.296875 54.6875 
L 54.296875 0 
L 45.3125 0 
L 45.3125 8.40625 
Q 42.046875 3.421875 37.71875 1 
Q 33.40625 -1.421875 27.6875 -1.421875 
Q 18.265625 -1.421875 13.375 4.4375 
Q 8.5 10.296875 8.5 21.578125 
z
M 31.109375 56 
z
" id="DejaVuSans-117"/>
       <path d="M 54.890625 33.015625 
L 54.890625 0 
L 45.90625 0 
L 45.90625 32.71875 
Q 45.90625 40.484375 42.875 44.328125 
Q 39.84375 48.1875 33.796875 48.1875 
Q 26.515625 48.1875 22.3125 43.546875 
Q 18.109375 38.921875 18.109375 30.90625 
L 18.109375 0 
L 9.078125 0 
L 9.078125 54.6875 
L 18.109375 54.6875 
L 18.109375 46.1875 
Q 21.34375 51.125 25.703125 53.5625 
Q 30.078125 56 35.796875 56 
Q 45.21875 56 50.046875 50.171875 
Q 54.890625 44.34375 54.890625 33.015625 
z
" id="DejaVuSans-110"/>
      </defs>
      <g transform="translate(402.450223 364.598437)scale(0.1 -0.1)">
       <use xlink:href="#DejaVuSans-74"/>
       <use x="29.492188" xlink:href="#DejaVuSans-117"/>
       <use x="92.871094" xlink:href="#DejaVuSans-110"/>
       <use x="156.25" xlink:href="#DejaVuSans-32"/>
       <use x="188.037109" xlink:href="#DejaVuSans-48"/>
       <use x="251.660156" xlink:href="#DejaVuSans-50"/>
      </g>
     </g>
    </g>
    <g id="xtick_10">
     <g id="line2d_11">
      <g>
       <use style="stroke:#000000;stroke-width:0.8;" x="456.964286" xlink:href="#mfaef3d8499" y="350"/>
      </g>
     </g>
     <g id="text_10">
      <!-- Jun 09 -->
      <g transform="translate(441.200223 364.598437)scale(0.1 -0.1)">
       <use xlink:href="#DejaVuSans-74"/>
       <use x="29.492188" xlink:href="#DejaVuSans-117"/>
       <use x="92.871094" xlink:href="#DejaVuSans-110"/>
       <use x="156.25" xlink:href="#DejaVuSans-32"/>
       <use x="188.037109" xlink:href="#DejaVuSans-48"/>
       <use x="251.660156" xlink:href="#DejaVuSans-57"/>
      </g>
     </g>
    </g>
    <g id="xtick_11">
     <g id="line2d_12">
      <g>
       <use style="stroke:#000000;stroke-width:0.8;" x="495.714286" xlink:href="#mfaef3d8499" y="350"/>
      </g>
     </g>
     <g id="text_11">
      <!-- Jun 16 -->
      <g transform="translate(479.950223 364.598437)scale(0.1 -0.1)">
       <use xlink:href="#DejaVuSans-74"/>
       <use x="29.492188" xlink:href="#DejaVuSans-117"/>
       <use x="92.871094" xlink:href="#DejaVuSans-110"/>
       <use x="156.25" xlink:href="#DejaVuSans-32"/>
       <use x="188.037109" xlink:href="#DejaVuSans-49"/>
       <use x="251.660156" xlink:href="#DejaVuSans-54"/>
      </g>
     </g>
    </g>
    <g id="xtick_12">
     <g id="line2d_13">
      <g>
       <use style="stroke:#000000;stroke-width:0.8;" x="534.464286" xlink:href="#mfaef3d8499" y="350"/>
      </g>
     </g>
     <g id="text_12">
      <!-- Jun 23 -->
      <defs>
       <path d="M 40.578125 39.3125 
Q 47.65625 37.796875 51.625 33 
Q 55.609375 28.21875 55.609375 21.1875 
Q 55.609375 10.40625 48.1875 4.484375 
Q 40.765625 -1.421875 27.09375 -1.421875 
Q 22.515625 -1.421875 17.65625 -0.515625 
Q 12.796875 0.390625 7.625 2.203125 
L 7.625 11.71875 
Q 11.71875 9.328125 16.59375 8.109375 
Q 21.484375 6.890625 26.8125 6.890625 
Q 36.078125 6.890625 40.9375 10.546875 
Q 45.796875 14.203125 45.796875 21.1875 
Q 45.796875 27.640625 41.28125 31.265625 
Q 36.765625 34.90625 28.71875 34.90625 
L 20.21875 34.90625 
L 20.21875 43.015625 
L 29.109375 43.015625 
Q 36.375 43.015625 40.234375 45.921875 
Q 44.09375 48.828125 44.09375 54.296875 
Q 44.09375 59.90625 40.109375 62.90625 
Q 36.140625 65.921875 28.71875 65.921875 
Q 24.65625 65.921875 20.015625 65.03125 
Q 15.375 64.15625 9.8125 62.3125 
L 9.8125 71.09375 
Q 15.4375 72.65625 20.34375 73.4375 
Q 25.25 74.21875 29.59375 74.21875 
Q 40.828125 74.21875 47.359375 69.109375 
Q 53.90625 64.015625 53.90625 55.328125 
Q 53.90625 49.265625 50.4375 45.09375 
Q 46.96875 40.921875 40.578125 39.3125 
z
" id="DejaVuSans-51"/>
      </defs>
      <g transform="translate(518.700223 364.598437)scale(0.1 -0.1)">
       <use xlink:href="#DejaVuSans-74"/>
       <use x="29.492188" xlink:href="#DejaVuSans-117"/>
       <use x="92.871094" xlink:href="#DejaVuSans-110"/>
       <use x="156.25" xlink:href="#DejaVuSans-32"/>
       <use x="188.037109" xlink:href="#DejaVuSans-50"/>
       <use x="251.660156" xlink:href="#DejaVuSans-51"/>
      </g>
     </g>
    </g>
    <g id="xtick_13">
     <g id="line2d_14">
      <defs>
       <path d="M 0 0 
L 0 2 
" id="me56273c32d" style="stroke:#000000;stroke-width:0.6;"/>
      </defs>
      <g>
       <use style="stroke:#000000;stroke-width:0.6;" x="75" xlink:href="#me56273c32d" y="350"/>
      </g>
     </g>
    </g>
    <g id="xtick_14">
     <g id="line2d_15">
      <g>
       <use style="stroke:#000000;stroke-width:0.6;" x="80.535714" xlink:href="#me56273c32d" y="350"/>
      </g>
     </g>
    </g>
    <g id="xtick_15">
     <g id="line2d_16">
      <g>
       <use style="stroke:#000000;stroke-width:0.6;" x="86.071429" xlink:href="#me56273c32d" y="350"/>
      </g>
     </g>
    </g>
    <g id="xtick_16">
     <g id="line2d_17">
      <g>
       <use style="stroke:#000000;stroke-width:0.6;" x="91.607143" xlink:href="#me56273c32d" y="350"/>
      </g>
     </g>
    </g>
    <g id="xtick_17">
     <g id="line2d_18">
      <g>
       <use style="stroke:#000000;stroke-width:0.6;" x="97.142857" xlink:href="#me56273c32d" y="350"/>
      </g>
     </g>
    </g>
    <g id="xtick_18">
     <g id="line2d_19">
      <g>
       <use style="stroke:#000000;stroke-width:0.6;" x="102.678571" xlink:href="#me56273c32d" y="350"/>
      </g>
     </g>
    </g>
    <g id="xtick_19">
     <g id="line2d_20">
      <g>
       <use style="stroke:#000000;stroke-width:0.6;" x="113.75" xlink:href="#me56273c32d" y="350"/>
      </g>
     </g>
    </g>
    <g id="xtick_20">
     <g id="line2d_21">
      <g>
       <use style="stroke:#000000;stroke-width:0.6;" x="119.285714" xlink:href="#me56273c32d" y="350"/>
      </g>
     </g>
    </g>
    <g id="xtick_21">
     <g id="line2d_22">
      <g>
       <use style="stroke:#000000;stroke-width:0.6;" x="124.821429" xlink:href="#me56273c32d" y="350"/>
      </g>
     </g>
    </g>
    <g id="xtick_22">
     <g id="line2d_23">
      <g>
       <use style="stroke:#000000;stroke-width:0.6;" x="130.357143" xlink:href="#me56273c32d" y="350"/>
      </g>
     </g>
    </g>
    <g id="xtick_23">
     <g id="line2d_24">
      <g>
       <use style="stroke:#000000;stroke-width:0.6;" x="135.892857" xlink:href="#me56273c32d" y="350"/>
      </g>
     </g>
    </g>
    <g id="xtick_24">
     <g id="line2d_25">
      <g>
       <use style="stroke:#000000;stroke-width:0.6;" x="141.428571" xlink:href="#me56273c32d" y="350"/>
      </g>
     </g>
    </g>
    <g id="xtick_25">
     <g id="line2d_26">
      <g>
       <use style="stroke:#000000;stroke-width:0.6;" x="152.5" xlink:href="#me56273c32d" y="350"/>
      </g>
     </g>
    </g>
    <g id="xtick_26">
     <g id="line2d_27">
      <g>
       <use style="stroke:#000000;stroke-width:0.6;" x="158.035714" xlink:href="#me56273c32d" y="350"/>
      </g>
     </g>
    </g>
    <g id="xtick_27">
     <g id="line2d_28">
      <g>
       <use style="stroke:#000000;stroke-width:0.6;" x="163.571429" xlink:href="#me56273c32d" y="350"/>
      </g>
     </g>
    </g>
    <g id="xtick_28">
     <g id="line2d_29">
      <g>
       <use style="stroke:#000000;stroke-width:0.6;" x="169.107143" xlink:href="#me56273c32d" y="350"/>
      </g>
     </g>
    </g>
    <g id="xtick_29">
     <g id="line2d_30">
      <g>
       <use style="stroke:#000000;stroke-width:0.6;" x="174.642857" xlink:href="#me56273c32d" y="350"/>
      </g>
     </g>
    </g>
    <g id="xtick_30">
     <g id="line2d_31">
      <g>
       <use style="stroke:#000000;stroke-width:0.6;" x="180.178571" xlink:href="#me56273c32d" y="350"/>
      </g>
     </g>
    </g>
    <g id="xtick_31">
     <g id="line2d_32">
      <g>
       <use style="stroke:#000000;stroke-width:0.6;" x="191.25" xlink:href="#me56273c32d" y="350"/>
      </g>
     </g>
    </g>
    <g id="xtick_32">
     <g id="line2d_33">
      <g>
       <use style="stroke:#000000;stroke-width:0.6;" x="196.785714" xlink:href="#me56273c32d" y="350"/>
      </g>
     </g>
    </g>
    <g id="xtick_33">
     <g id="line2d_34">
      <g>
       <use style="stroke:#000000;stroke-width:0.6;" x="202.321429" xlink:href="#me56273c32d" y="350"/>
      </g>
     </g>
    </g>
    <g id="xtick_34">
     <g id="line2d_35">
      <g>
       <use style="stroke:#000000;stroke-width:0.6;" x="207.857143" xlink:href="#me56273c32d" y="350"/>
      </g>
     </g>
    </g>
    <g id="xtick_35">
     <g id="line2d_36">
      <g>
       <use style="stroke:#000000;stroke-width:0.6;" x="213.392857" xlink:href="#me56273c32d" y="350"/>
      </g>
     </g>
    </g>
    <g id="xtick_36">
     <g id="line2d_37">
      <g>
       <use style="stroke:#000000;stroke-width:0.6;" x="218.928571" xlink:href="#me56273c32d" y="350"/>
      </g>
     </g>
    </g>
    <g id="xtick_37">
     <g id="line2d_38">
      <g>
       <use style="stroke:#000000;stroke-width:0.6;" x="230" xlink:href="#me56273c32d" y="350"/>
      </g>
     </g>
    </g>
    <g id="xtick_38">
     <g id="line2d_39">
      <g>
       <use style="stroke:#000000;stroke-width:0.6;" x="235.535714" xlink:href="#me56273c32d" y="350"/>
      </g>
     </g>
    </g>
    <g id="xtick_39">
     <g id="line2d_40">
      <g>
       <use style="stroke:#000000;stroke-width:0.6;" x="241.071429" xlink:href="#me56273c32d" y="350"/>
      </g>
     </g>
    </g>
    <g id="xtick_40">
     <g id="line2d_41">
      <g>
       <use style="stroke:#000000;stroke-width:0.6;" x="246.607143" xlink:href="#me56273c32d" y="350"/>
      </g>
     </g>
    </g>
    <g id="xtick_41">
     <g id="line2d_42">
      <g>
       <use style="stroke:#000000;stroke-width:0.6;" x="252.142857" xlink:href="#me56273c32d" y="350"/>
      </g>
     </g>
    </g>
    <g id="xtick_42">
     <g id="line2d_43">
      <g>
       <use style="stroke:#000000;stroke-width:0.6;" x="257.678571" xlink:href="#me56273c32d" y="350"/>
      </g>
     </g>
    </g>
    <g id="xtick_43">
     <g id="line2d_44">
      <g>
       <use style="stroke:#000000;stroke-width:0.6;" x="268.75" xlink:href="#me56273c32d" y="350"/>
      </g>
     </g>
    </g>
    <g id="xtick_44">
     <g id="line2d_45">
      <g>
       <use style="stroke:#000000;stroke-width:0.6;" x="274.285714" xlink:href="#me56273c32d" y="350"/>
      </g>
     </g>
    </g>
    <g id="xtick_45">
     <g id="line2d_46">
      <g>
       <use style="stroke:#000000;stroke-width:0.6;" x="279.821429" xlink:href="#me56273c32d" y="350"/>
      </g>
     </g>
    </g>
    <g id="xtick_46">
     <g id="line2d_47">
      <g>
       <use style="stroke:#000000;stroke-width:0.6;" x="285.357143" xlink:href="#me56273c32d" y="350"/>
      </g>
     </g>
    </g>
    <g id="xtick_47">
     <g id="line2d_48">
      <g>
       <use style="stroke:#000000;stroke-width:0.6;" x="290.892857" xlink:href="#me56273c32d" y="350"/>
      </g>
     </g>
    </g>
    <g id="xtick_48">
     <g id="line2d_49">
      <g>
       <use style="stroke:#000000;stroke-width:0.6;" x="296.428571" xlink:href="#me56273c32d" y="350"/>
      </g>
     </g>
    </g>
    <g id="xtick_49">
     <g id="line2d_50">
      <g>
       <use style="stroke:#000000;stroke-width:0.6;" x="307.5" xlink:href="#me56273c32d" y="350"/>
      </g>
     </g>
    </g>
    <g id="xtick_50">
     <g id="line2d_51">
      <g>
       <use style="stroke:#000000;stroke-width:0.6;" x="313.035714" xlink:href="#me56273c32d" y="350"/>
      </g>
     </g>
    </g>
    <g id="xtick_51">
     <g id="line2d_52">
      <g>
       <use style="stroke:#000000;stroke-width:0.6;" x="318.571429" xlink:href="#me56273c32d" y="350"/>
      </g>
     </g>
    </g>
    <g id="xtick_52">
     <g id="line2d_53">
      <g>
       <use style="stroke:#000000;stroke-width:0.6;" x="324.107143" xlink:href="#me56273c32d" y="350"/>
      </g>
     </g>
    </g>
    <g id="xtick_53">
     <g id="line2d_54">
      <g>
       <use style="stroke:#000000;stroke-width:0.6;" x="329.642857" xlink:href="#me56273c32d" y="350"/>
      </g>
     </g>
    </g>
    <g id="xtick_54">
     <g id="line2d_55">
      <g>
       <use style="stroke:#000000;stroke-width:0.6;" x="335.178571" xlink:href="#me56273c32d" y="350"/>
      </g>
     </g>
    </g>
    <g id="xtick_55">
     <g id="line2d_56">
      <g>
       <use style="stroke:#000000;stroke-width:0.6;" x="346.25" xlink:href="#me56273c32d" y="350"/>
      </g>
     </g>
    </g>
    <g id="xtick_56">
     <g id="line2d_57">
      <g>
       <use style="stroke:#000000;stroke-width:0.6;" x="351.785714" xlink:href="#me56273c32d" y="350"/>
      </g>
     </g>
    </g>
    <g id="xtick_57">
     <g id="line2d_58">
      <g>
       <use style="stroke:#000000;stroke-width:0.6;" x="357.321429" xlink:href="#me56273c32d" y="350"/>
      </g>
     </g>
    </g>
    <g id="xtick_58">
     <g id="line2d_59">
      <g>
       <use style="stroke:#000000;stroke-width:0.6;" x="362.857143" xlink:href="#me56273c32d" y="350"/>
      </g>
     </g>
    </g>
    <g id="xtick_59">
     <g id="line2d_60">
      <g>
       <use style="stroke:#000000;stroke-width:0.6;" x="368.392857" xlink:href="#me56273c32d" y="350"/>
      </g>
     </g>
    </g>
    <g id="xtick_60">
     <g id="line2d_61">
      <g>
       <use style="stroke:#000000;stroke-width:0.6;" x="373.928571" xlink:href="#me56273c32d" y="350"/>
      </g>
     </g>
    </g>
    <g id="xtick_61">
     <g id="line2d_62">
      <g>
       <use style="stroke:#000000;stroke-width:0.6;" x="385" xlink:href="#me56273c32d" y="350"/>
      </g>
     </g>
    </g>
    <g id="xtick_62">
     <g id="line2d_63">
      <g>
       <use style="stroke:#000000;stroke-width:0.6;" x="390.535714" xlink:href="#me56273c32d" y="350"/>
      </g>
     </g>
    </g>
    <g id="xtick_63">
     <g id="line2d_64">
      <g>
       <use style="stroke:#000000;stroke-width:0.6;" x="396.071429" xlink:href="#me56273c32d" y="350"/>
      </g>
     </g>
    </g>
    <g id="xtick_64">
     <g id="line2d_65">
      <g>
       <use style="stroke:#000000;stroke-width:0.6;" x="401.607143" xlink:href="#me56273c32d" y="350"/>
      </g>
     </g>
    </g>
    <g id="xtick_65">
     <g id="line2d_66">
      <g>
       <use style="stroke:#000000;stroke-width:0.6;" x="407.142857" xlink:href="#me56273c32d" y="350"/>
      </g>
     </g>
    </g>
    <g id="xtick_66">
     <g id="line2d_67">
      <g>
       <use style="stroke:#000000;stroke-width:0.6;" x="412.678571" xlink:href="#me56273c32d" y="350"/>
      </g>
     </g>
    </g>
    <g id="xtick_67">
     <g id="line2d_68">
      <g>
       <use style="stroke:#000000;stroke-width:0.6;" x="423.75" xlink:href="#me56273c32d" y="350"/>
      </g>
     </g>
    </g>
    <g id="xtick_68">
     <g id="line2d_69">
      <g>
       <use style="stroke:#000000;stroke-width:0.6;" x="429.285714" xlink:href="#me56273c32d" y="350"/>
      </g>
     </g>
    </g>
    <g id="xtick_69">
     <g id="line2d_70">
      <g>
       <use style="stroke:#000000;stroke-width:0.6;" x="434.821429" xlink:href="#me56273c32d" y="350"/>
      </g>
     </g>
    </g>
    <g id="xtick_70">
     <g id="line2d_71">
      <g>
       <use style="stroke:#000000;stroke-width:0.6;" x="440.357143" xlink:href="#me56273c32d" y="350"/>
      </g>
     </g>
    </g>
    <g id="xtick_71">
     <g id="line2d_72">
      <g>
       <use style="stroke:#000000;stroke-width:0.6;" x="445.892857" xlink:href="#me56273c32d" y="350"/>
      </g>
     </g>
    </g>
    <g id="xtick_72">
     <g id="line2d_73">
      <g>
       <use style="stroke:#000000;stroke-width:0.6;" x="451.428571" xlink:href="#me56273c32d" y="350"/>
      </g>
     </g>
    </g>
    <g id="xtick_73">
     <g id="line2d_74">
      <g>
       <use style="stroke:#000000;stroke-width:0.6;" x="462.5" xlink:href="#me56273c32d" y="350"/>
      </g>
     </g>
    </g>
    <g id="xtick_74">
     <g id="line2d_75">
      <g>
       <use style="stroke:#000000;stroke-width:0.6;" x="468.035714" xlink:href="#me56273c32d" y="350"/>
      </g>
     </g>
    </g>
    <g id="xtick_75">
     <g id="line2d_76">
      <g>
       <use style="stroke:#000000;stroke-width:0.6;" x="473.571429" xlink:href="#me56273c32d" y="350"/>
      </g>
     </g>
    </g>
    <g id="xtick_76">
     <g id="line2d_77">
      <g>
       <use style="stroke:#000000;stroke-width:0.6;" x="479.107143" xlink:href="#me56273c32d" y="350"/>
      </g>
     </g>
    </g>
    <g id="xtick_77">
     <g id="line2d_78">
      <g>
       <use style="stroke:#000000;stroke-width:0.6;" x="484.642857" xlink:href="#me56273c32d" y="350"/>
      </g>
     </g>
    </g>
    <g id="xtick_78">
     <g id="line2d_79">
      <g>
       <use style="stroke:#000000;stroke-width:0.6;" x="490.178571" xlink:href="#me56273c32d" y="350"/>
      </g>
     </g>
    </g>
    <g id="xtick_79">
     <g id="line2d_80">
      <g>
       <use style="stroke:#000000;stroke-width:0.6;" x="501.25" xlink:href="#me56273c32d" y="350"/>
      </g>
     </g>
    </g>
    <g id="xtick_80">
     <g id="line2d_81">
      <g>
       <use style="stroke:#000000;stroke-width:0.6;" x="506.785714" xlink:href="#me56273c32d" y="350"/>
      </g>
     </g>
    </g>
    <g id="xtick_81">
     <g id="line2d_82">
      <g>
       <use style="stroke:#000000;stroke-width:0.6;" x="512.321429" xlink:href="#me56273c32d" y="350"/>
      </g>
     </g>
    </g>
    <g id="xtick_82">
     <g id="line2d_83">
      <g>
       <use style="stroke:#000000;stroke-width:0.6;" x="517.857143" xlink:href="#me56273c32d" y="350"/>
      </g>
     </g>
    </g>
    <g id="xtick_83">
     <g id="line2d_84">
      <g>
       <use style="stroke:#000000;stroke-width:0.6;" x="523.392857" xlink:href="#me56273c32d" y="350"/>
      </g>
     </g>
    </g>
    <g id="xtick_84">
     <g id="line2d_85">
      <g>
       <use style="stroke:#000000;stroke-width:0.6;" x="528.928571" xlink:href="#me56273c32d" y="350"/>
      </g>
     </g>
    </g>
    <g id="xtick_85">
     <g id="line2d_86">
      <g>
       <use style="stroke:#000000;stroke-width:0.6;" x="540" xlink:href="#me56273c32d" y="350"/>
      </g>
     </g>
    </g>
   </g>
   <g id="matplotlib.axis_2">
    <g id="ytick_1">
     <g id="line2d_87">
      <path clip-path="url(#p222988bfbe)" d="M 75 299.666667 
L 540 299.666667 
" style="fill:none;stroke:#000000;stroke-linecap:square;stroke-opacity:0.1;stroke-width:0.8;"/>
     </g>
     <g id="line2d_88">
      <defs>
       <path d="M 0 0 
L 3.5 0 
" id="md0c98f5d72" style="stroke:#000000;stroke-width:0.8;"/>
      </defs>
      <g>
       <use style="stroke:#000000;stroke-width:0.8;" x="540" xlink:href="#md0c98f5d72" y="299.666667"/>
      </g>
     </g>
     <g id="text_13">
      <!-- 1.0 -->
      <defs>
       <path d="M 10.6875 12.40625 
L 21 12.40625 
L 21 0 
L 10.6875 0 
z
" id="DejaVuSans-46"/>
      </defs>
      <g transform="translate(547 303.465885)scale(0.1 -0.1)">
       <use xlink:href="#DejaVuSans-49"/>
       <use x="63.623047" xlink:href="#DejaVuSans-46"/>
       <use x="95.410156" xlink:href="#DejaVuSans-48"/>
      </g>
     </g>
    </g>
    <g id="ytick_2">
     <g id="line2d_89">
      <path clip-path="url(#p222988bfbe)" d="M 75 199 
L 540 199 
" style="fill:none;stroke:#000000;stroke-linecap:square;stroke-opacity:0.1;stroke-width:0.8;"/>
     </g>
     <g id="line2d_90">
      <g>
       <use style="stroke:#000000;stroke-width:0.8;" x="540" xlink:href="#md0c98f5d72" y="199"/>
      </g>
     </g>
     <g id="text_14">
      <!-- 2.0 -->
      <g transform="translate(547 202.799219)scale(0.1 -0.1)">
       <use xlink:href="#DejaVuSans-50"/>
       <use x="63.623047" xlink:href="#DejaVuSans-46"/>
       <use x="95.410156" xlink:href="#DejaVuSans-48"/>
      </g>
     </g>
    </g>
    <g id="ytick_3">
     <g id="line2d_91">
      <path clip-path="url(#p222988bfbe)" d="M 75 98.333333 
L 540 98.333333 
" style="fill:none;stroke:#000000;stroke-linecap:square;stroke-opacity:0.1;stroke-width:0.8;"/>
     </g>
     <g id="line2d_92">
      <g>
       <use style="stroke:#000000;stroke-width:0.8;" x="540" xlink:href="#md0c98f5d72" y="98.333333"/>
      </g>
     </g>
     <g id="text_15">
      <!-- 3.0 -->
      <g transform="translate(547 102.132552)scale(0.1 -0.1)">
       <use xlink:href="#DejaVuSans-51"/>
       <use x="63.623047" xlink:href="#DejaVuSans-46"/>
       <use x="95.410156" xlink:href="#DejaVuSans-48"/>
      </g>
     </g>
    </g>
   </g>
   <g id="PathCollection_1">
    <defs>
     <path d="M 0 3.162278 
C 0.838646 3.162278 1.643056 2.82908 2.236068 2.236068 
C 2.82908 1.643056 3.162278 0.838646 3.162278 0 
C 3.162278 -0.838646 2.82908 -1.643056 2.236068 -2.236068 
C 1.643056 -2.82908 0.838646 -3.162278 0 -3.162278 
C -0.838646 -3.162278 -1.643056 -2.82908 -2.236068 -2.236068 
C -2.82908 -1.643056 -3.162278 -0.838646 -3.162278 0 
C -3.162278 0.838646 -2.82908 1.643056 -2.236068 2.236068 
C -1.643056 2.82908 -0.838646 3.162278 0 3.162278 
z
" id="C0_0_79ab74a1c8"/>
    </defs>
    <g clip-path="url(#p222988bfbe)">
     <use style="stroke:#000000;stroke-width:0.5;" x="-2.5" xlink:href="#C0_0_79ab74a1c8" y="400.333333"/>
    </g>
    <g clip-path="url(#p222988bfbe)">
     <use style="fill:#ff0000;stroke:#000000;stroke-width:0.5;" x="3.035714" xlink:href="#C0_0_79ab74a1c8" y="169.806667"/>
    </g>
    <g clip-path="url(#p222988bfbe)">
     <use style="fill:#ff0000;stroke:#000000;stroke-width:0.5;" x="8.571429" xlink:href="#C0_0_79ab74a1c8" y="175.846667"/>
    </g>
    <g clip-path="url(#p222988bfbe)">
     <use style="fill:#ff0000;stroke:#000000;stroke-width:0.5;" x="14.107143" xlink:href="#C0_0_79ab74a1c8" y="204.033333"/>
    </g>
    <g clip-path="url(#p222988bfbe)">
     <use style="fill:#ff0000;stroke:#000000;stroke-width:0.5;" x="19.642857" xlink:href="#C0_0_79ab74a1c8" y="218.126667"/>
    </g>
    <g clip-path="url(#p222988bfbe)">
     <use style="fill:#ff0000;stroke:#000000;stroke-width:0.5;" x="25.178571" xlink:href="#C0_0_79ab74a1c8" y="239.266667"/>
    </g>
    <g clip-path="url(#p222988bfbe)">
     <use style="fill:#ff0000;stroke:#000000;stroke-width:0.5;" x="30.714286" xlink:href="#C0_0_79ab74a1c8" y="244.3"/>
    </g>
    <g clip-path="url(#p222988bfbe)">
     <use style="fill:#ff0b0b;stroke:#000000;stroke-width:0.5;" x="36.25" xlink:href="#C0_0_79ab74a1c8" y="252.353333"/>
    </g>
    <g clip-path="url(#p222988bfbe)">
     <use style="fill:#ff4040;stroke:#000000;stroke-width:0.5;" x="41.785714" xlink:href="#C0_0_79ab74a1c8" y="263.426667"/>
    </g>
    <g clip-path="url(#p222988bfbe)">
     <use style="fill:#ff4040;stroke:#000000;stroke-width:0.5;" x="47.321429" xlink:href="#C0_0_79ab74a1c8" y="262.42"/>
    </g>
    <g clip-path="url(#p222988bfbe)">
     <use style="fill:#ff3535;stroke:#000000;stroke-width:0.5;" x="52.857143" xlink:href="#C0_0_79ab74a1c8" y="261.413333"/>
    </g>
    <g clip-path="url(#p222988bfbe)">
     <use style="fill:#ff0000;stroke:#000000;stroke-width:0.5;" x="58.392857" xlink:href="#C0_0_79ab74a1c8" y="229.2"/>
    </g>
    <g clip-path="url(#p222988bfbe)">
     <use style="fill:#ff0000;stroke:#000000;stroke-width:0.5;" x="63.928571" xlink:href="#C0_0_79ab74a1c8" y="195.98"/>
    </g>
    <g clip-path="url(#p222988bfbe)">
     <use style="fill:#ff0000;stroke:#000000;stroke-width:0.5;" x="69.464286" xlink:href="#C0_0_79ab74a1c8" y="208.06"/>
    </g>
    <g clip-path="url(#p222988bfbe)">
     <use style="fill:#ff0000;stroke:#000000;stroke-width:0.5;" x="75" xlink:href="#C0_0_79ab74a1c8" y="215.106667"/>
    </g>
    <g clip-path="url(#p222988bfbe)">
     <use style="fill:#ff0000;stroke:#000000;stroke-width:0.5;" x="80.535714" xlink:href="#C0_0_79ab74a1c8" y="234.233333"/>
    </g>
    <g clip-path="url(#p222988bfbe)">
     <use style="fill:#ff0000;stroke:#000000;stroke-width:0.5;" x="86.071429" xlink:href="#C0_0_79ab74a1c8" y="232.22"/>
    </g>
    <g clip-path="url(#p222988bfbe)">
     <use style="fill:#ff0000;stroke:#000000;stroke-width:0.5;" x="91.607143" xlink:href="#C0_0_79ab74a1c8" y="236.246667"/>
    </g>
    <g clip-path="url(#p222988bfbe)">
     <use style="fill:#ff0000;stroke:#000000;stroke-width:0.5;" x="97.142857" xlink:href="#C0_0_79ab74a1c8" y="244.3"/>
    </g>
    <g clip-path="url(#p222988bfbe)">
     <use style="fill:#ff0000;stroke:#000000;stroke-width:0.5;" x="102.678571" xlink:href="#C0_0_79ab74a1c8" y="249.333333"/>
    </g>
    <g clip-path="url(#p222988bfbe)">
     <use style="fill:#ff2020;stroke:#000000;stroke-width:0.5;" x="108.214286" xlink:href="#C0_0_79ab74a1c8" y="257.386667"/>
    </g>
    <g clip-path="url(#p222988bfbe)">
     <use style="fill:#ff8080;stroke:#000000;stroke-width:0.5;" x="113.75" xlink:href="#C0_0_79ab74a1c8" y="275.506667"/>
    </g>
    <g clip-path="url(#p222988bfbe)">
     <use style="fill:#ffb5b5;stroke:#000000;stroke-width:0.5;" x="119.285714" xlink:href="#C0_0_79ab74a1c8" y="283.56"/>
    </g>
    <g clip-path="url(#p222988bfbe)">
     <use style="fill:#ffaaaa;stroke:#000000;stroke-width:0.5;" x="124.821429" xlink:href="#C0_0_79ab74a1c8" y="282.553333"/>
    </g>
    <g clip-path="url(#p222988bfbe)">
     <use style="fill:#ff6a6a;stroke:#000000;stroke-width:0.5;" x="130.357143" xlink:href="#C0_0_79ab74a1c8" y="271.48"/>
    </g>
    <g clip-path="url(#p222988bfbe)">
     <use style="fill:#ff8080;stroke:#000000;stroke-width:0.5;" x="135.892857" xlink:href="#C0_0_79ab74a1c8" y="275.506667"/>
    </g>
    <g clip-path="url(#p222988bfbe)">
     <use style="fill:#ff9595;stroke:#000000;stroke-width:0.5;" x="141.428571" xlink:href="#C0_0_79ab74a1c8" y="279.533333"/>
    </g>
    <g clip-path="url(#p222988bfbe)">
     <use style="fill:#ffbfbf;stroke:#000000;stroke-width:0.5;" x="146.964286" xlink:href="#C0_0_79ab74a1c8" y="287.586667"/>
    </g>
    <g clip-path="url(#p222988bfbe)">
     <use style="fill:#ffbfbf;stroke:#000000;stroke-width:0.5;" x="152.5" xlink:href="#C0_0_79ab74a1c8" y="286.58"/>
    </g>
    <g clip-path="url(#p222988bfbe)">
     <use style="fill:#ff7575;stroke:#000000;stroke-width:0.5;" x="158.035714" xlink:href="#C0_0_79ab74a1c8" y="272.486667"/>
    </g>
    <g clip-path="url(#p222988bfbe)">
     <use style="fill:#ff8a8a;stroke:#000000;stroke-width:0.5;" x="163.571429" xlink:href="#C0_0_79ab74a1c8" y="277.52"/>
    </g>
    <g clip-path="url(#p222988bfbe)">
     <use style="fill:#ff6060;stroke:#000000;stroke-width:0.5;" x="169.107143" xlink:href="#C0_0_79ab74a1c8" y="269.466667"/>
    </g>
    <g clip-path="url(#p222988bfbe)">
     <use style="fill:#ff8080;stroke:#000000;stroke-width:0.5;" x="174.642857" xlink:href="#C0_0_79ab74a1c8" y="275.506667"/>
    </g>
    <g clip-path="url(#p222988bfbe)">
     <use style="fill:#ffaaaa;stroke:#000000;stroke-width:0.5;" x="180.178571" xlink:href="#C0_0_79ab74a1c8" y="282.553333"/>
    </g>
    <g clip-path="url(#p222988bfbe)">
     <use style="fill:#ffbfbf;stroke:#000000;stroke-width:0.5;" x="185.714286" xlink:href="#C0_0_79ab74a1c8" y="287.586667"/>
    </g>
    <g clip-path="url(#p222988bfbe)">
     <use style="fill:#ffbfbf;stroke:#000000;stroke-width:0.5;" x="191.25" xlink:href="#C0_0_79ab74a1c8" y="287.586667"/>
    </g>
    <g clip-path="url(#p222988bfbe)">
     <use style="fill:#ffcaca;stroke:#000000;stroke-width:0.5;" x="196.785714" xlink:href="#C0_0_79ab74a1c8" y="289.6"/>
    </g>
    <g clip-path="url(#p222988bfbe)">
     <use style="fill:#ffb5b5;stroke:#000000;stroke-width:0.5;" x="202.321429" xlink:href="#C0_0_79ab74a1c8" y="283.56"/>
    </g>
    <g clip-path="url(#p222988bfbe)">
     <use style="fill:#ffbfbf;stroke:#000000;stroke-width:0.5;" x="207.857143" xlink:href="#C0_0_79ab74a1c8" y="287.586667"/>
    </g>
    <g clip-path="url(#p222988bfbe)">
     <use style="fill:#ffcaca;stroke:#000000;stroke-width:0.5;" x="213.392857" xlink:href="#C0_0_79ab74a1c8" y="288.593333"/>
    </g>
    <g clip-path="url(#p222988bfbe)">
     <use style="fill:#ffd4d4;stroke:#000000;stroke-width:0.5;" x="218.928571" xlink:href="#C0_0_79ab74a1c8" y="291.613333"/>
    </g>
    <g clip-path="url(#p222988bfbe)">
     <use style="fill:#ffaaaa;stroke:#000000;stroke-width:0.5;" x="224.464286" xlink:href="#C0_0_79ab74a1c8" y="282.553333"/>
    </g>
    <g clip-path="url(#p222988bfbe)">
     <use style="fill:#ff8a8a;stroke:#000000;stroke-width:0.5;" x="230" xlink:href="#C0_0_79ab74a1c8" y="277.52"/>
    </g>
    <g clip-path="url(#p222988bfbe)">
     <use style="fill:#ff5555;stroke:#000000;stroke-width:0.5;" x="235.535714" xlink:href="#C0_0_79ab74a1c8" y="267.453333"/>
    </g>
    <g clip-path="url(#p222988bfbe)">
     <use style="fill:#ff0b0b;stroke:#000000;stroke-width:0.5;" x="241.071429" xlink:href="#C0_0_79ab74a1c8" y="252.353333"/>
    </g>
    <g clip-path="url(#p222988bfbe)">
     <use style="fill:#ff1515;stroke:#000000;stroke-width:0.5;" x="246.607143" xlink:href="#C0_0_79ab74a1c8" y="254.366667"/>
    </g>
    <g clip-path="url(#p222988bfbe)">
     <use style="fill:#ff1515;stroke:#000000;stroke-width:0.5;" x="252.142857" xlink:href="#C0_0_79ab74a1c8" y="255.373333"/>
    </g>
    <g clip-path="url(#p222988bfbe)">
     <use style="fill:#ff4a4a;stroke:#000000;stroke-width:0.5;" x="257.678571" xlink:href="#C0_0_79ab74a1c8" y="265.44"/>
    </g>
    <g clip-path="url(#p222988bfbe)">
     <use style="fill:#ff9595;stroke:#000000;stroke-width:0.5;" x="263.214286" xlink:href="#C0_0_79ab74a1c8" y="279.533333"/>
    </g>
    <g clip-path="url(#p222988bfbe)">
     <use style="fill:#ffd4d4;stroke:#000000;stroke-width:0.5;" x="268.75" xlink:href="#C0_0_79ab74a1c8" y="290.606667"/>
    </g>
    <g clip-path="url(#p222988bfbe)">
     <use style="fill:#ffd4d4;stroke:#000000;stroke-width:0.5;" x="274.285714" xlink:href="#C0_0_79ab74a1c8" y="290.606667"/>
    </g>
    <g clip-path="url(#p222988bfbe)">
     <use style="fill:#ffeaea;stroke:#000000;stroke-width:0.5;" x="279.821429" xlink:href="#C0_0_79ab74a1c8" y="294.633333"/>
    </g>
    <g clip-path="url(#p222988bfbe)">
     <use style="fill:#ffcaca;stroke:#000000;stroke-width:0.5;" x="285.357143" xlink:href="#C0_0_79ab74a1c8" y="289.6"/>
    </g>
    <g clip-path="url(#p222988bfbe)">
     <use style="fill:#ffd4d4;stroke:#000000;stroke-width:0.5;" x="290.892857" xlink:href="#C0_0_79ab74a1c8" y="291.613333"/>
    </g>
    <g clip-path="url(#p222988bfbe)">
     <use style="fill:#ffd4d4;stroke:#000000;stroke-width:0.5;" x="296.428571" xlink:href="#C0_0_79ab74a1c8" y="291.613333"/>
    </g>
    <g clip-path="url(#p222988bfbe)">
     <use style="fill:#ffeaea;stroke:#000000;stroke-width:0.5;" x="301.964286" xlink:href="#C0_0_79ab74a1c8" y="294.633333"/>
    </g>
    <g clip-path="url(#p222988bfbe)">
     <use style="fill:#ffcaca;stroke:#000000;stroke-width:0.5;" x="307.5" xlink:href="#C0_0_79ab74a1c8" y="288.593333"/>
    </g>
    <g clip-path="url(#p222988bfbe)">
     <use style="fill:#ffb5b5;stroke:#000000;stroke-width:0.5;" x="313.035714" xlink:href="#C0_0_79ab74a1c8" y="285.573333"/>
    </g>
    <g clip-path="url(#p222988bfbe)">
     <use style="fill:#ff9595;stroke:#000000;stroke-width:0.5;" x="318.571429" xlink:href="#C0_0_79ab74a1c8" y="278.526667"/>
    </g>
    <g clip-path="url(#p222988bfbe)">
     <use style="fill:#ff6a6a;stroke:#000000;stroke-width:0.5;" x="324.107143" xlink:href="#C0_0_79ab74a1c8" y="270.473333"/>
    </g>
    <g clip-path="url(#p222988bfbe)">
     <use style="fill:#ff7575;stroke:#000000;stroke-width:0.5;" x="329.642857" xlink:href="#C0_0_79ab74a1c8" y="272.486667"/>
    </g>
    <g clip-path="url(#p222988bfbe)">
     <use style="fill:#ff7575;stroke:#000000;stroke-width:0.5;" x="335.178571" xlink:href="#C0_0_79ab74a1c8" y="273.493333"/>
    </g>
    <g clip-path="url(#p222988bfbe)">
     <use style="fill:#ff7575;stroke:#000000;stroke-width:0.5;" x="340.714286" xlink:href="#C0_0_79ab74a1c8" y="273.493333"/>
    </g>
    <g clip-path="url(#p222988bfbe)">
     <use style="fill:#ff9595;stroke:#000000;stroke-width:0.5;" x="346.25" xlink:href="#C0_0_79ab74a1c8" y="278.526667"/>
    </g>
    <g clip-path="url(#p222988bfbe)">
     <use style="fill:#ff9595;stroke:#000000;stroke-width:0.5;" x="351.785714" xlink:href="#C0_0_79ab74a1c8" y="278.526667"/>
    </g>
    <g clip-path="url(#p222988bfbe)">
     <use style="fill:#ffaaaa;stroke:#000000;stroke-width:0.5;" x="357.321429" xlink:href="#C0_0_79ab74a1c8" y="282.553333"/>
    </g>
    <g clip-path="url(#p222988bfbe)">
     <use style="fill:#ffdfdf;stroke:#000000;stroke-width:0.5;" x="362.857143" xlink:href="#C0_0_79ab74a1c8" y="293.626667"/>
    </g>
    <g clip-path="url(#p222988bfbe)">
     <use style="fill:#ffdfdf;stroke:#000000;stroke-width:0.5;" x="368.392857" xlink:href="#C0_0_79ab74a1c8" y="293.626667"/>
    </g>
    <g clip-path="url(#p222988bfbe)">
     <use style="fill:#ffeaea;stroke:#000000;stroke-width:0.5;" x="373.928571" xlink:href="#C0_0_79ab74a1c8" y="295.64"/>
    </g>
    <g clip-path="url(#p222988bfbe)">
     <use style="fill:#ffd4d4;stroke:#000000;stroke-width:0.5;" x="379.464286" xlink:href="#C0_0_79ab74a1c8" y="291.613333"/>
    </g>
    <g clip-path="url(#p222988bfbe)">
     <use style="fill:#ffb5b5;stroke:#000000;stroke-width:0.5;" x="385" xlink:href="#C0_0_79ab74a1c8" y="284.566667"/>
    </g>
    <g clip-path="url(#p222988bfbe)">
     <use style="fill:#ff9595;stroke:#000000;stroke-width:0.5;" x="390.535714" xlink:href="#C0_0_79ab74a1c8" y="279.533333"/>
    </g>
    <g clip-path="url(#p222988bfbe)">
     <use style="fill:#ff9f9f;stroke:#000000;stroke-width:0.5;" x="396.071429" xlink:href="#C0_0_79ab74a1c8" y="280.54"/>
    </g>
    <g clip-path="url(#p222988bfbe)">
     <use style="fill:#ffaaaa;stroke:#000000;stroke-width:0.5;" x="401.607143" xlink:href="#C0_0_79ab74a1c8" y="282.553333"/>
    </g>
    <g clip-path="url(#p222988bfbe)">
     <use style="fill:#ffbfbf;stroke:#000000;stroke-width:0.5;" x="407.142857" xlink:href="#C0_0_79ab74a1c8" y="287.586667"/>
    </g>
    <g clip-path="url(#p222988bfbe)">
     <use style="fill:#ffbfbf;stroke:#000000;stroke-width:0.5;" x="412.678571" xlink:href="#C0_0_79ab74a1c8" y="286.58"/>
    </g>
    <g clip-path="url(#p222988bfbe)">
     <use style="fill:#ffbfbf;stroke:#000000;stroke-width:0.5;" x="418.214286" xlink:href="#C0_0_79ab74a1c8" y="287.586667"/>
    </g>
    <g clip-path="url(#p222988bfbe)">
     <use style="fill:#ffb5b5;stroke:#000000;stroke-width:0.5;" x="423.75" xlink:href="#C0_0_79ab74a1c8" y="284.566667"/>
    </g>
    <g clip-path="url(#p222988bfbe)">
     <use style="fill:#ffb5b5;stroke:#000000;stroke-width:0.5;" x="429.285714" xlink:href="#C0_0_79ab74a1c8" y="284.566667"/>
    </g>
    <g clip-path="url(#p222988bfbe)">
     <use style="fill:#ffd4d4;stroke:#000000;stroke-width:0.5;" x="434.821429" xlink:href="#C0_0_79ab74a1c8" y="290.606667"/>
    </g>
    <g clip-path="url(#p222988bfbe)">
     <use style="fill:#ffeaea;stroke:#000000;stroke-width:0.5;" x="440.357143" xlink:href="#C0_0_79ab74a1c8" y="294.633333"/>
    </g>
    <g clip-path="url(#p222988bfbe)">
     <use style="fill:#ffffff;stroke:#000000;stroke-width:0.5;" x="445.892857" xlink:href="#C0_0_79ab74a1c8" y="298.66"/>
    </g>
    <g clip-path="url(#p222988bfbe)">
     <use style="fill:#fff4f4;stroke:#000000;stroke-width:0.5;" x="451.428571" xlink:href="#C0_0_79ab74a1c8" y="297.653333"/>
    </g>
    <g clip-path="url(#p222988bfbe)">
     <use style="fill:#ffdfdf;stroke:#000000;stroke-width:0.5;" x="456.964286" xlink:href="#C0_0_79ab74a1c8" y="292.62"/>
    </g>
    <g clip-path="url(#p222988bfbe)">
     <use style="fill:#ffcaca;stroke:#000000;stroke-width:0.5;" x="462.5" xlink:href="#C0_0_79ab74a1c8" y="288.593333"/>
    </g>
    <g clip-path="url(#p222988bfbe)">
     <use style="fill:#ffbfbf;stroke:#000000;stroke-width:0.5;" x="468.035714" xlink:href="#C0_0_79ab74a1c8" y="286.58"/>
    </g>
    <g clip-path="url(#p222988bfbe)">
     <use style="fill:#ffbfbf;stroke:#000000;stroke-width:0.5;" x="473.571429" xlink:href="#C0_0_79ab74a1c8" y="287.586667"/>
    </g>
    <g clip-path="url(#p222988bfbe)">
     <use style="fill:#ffeaea;stroke:#000000;stroke-width:0.5;" x="479.107143" xlink:href="#C0_0_79ab74a1c8" y="295.64"/>
    </g>
    <g clip-path="url(#p222988bfbe)">
     <use style="fill:#ffeaea;stroke:#000000;stroke-width:0.5;" x="484.642857" xlink:href="#C0_0_79ab74a1c8" y="295.64"/>
    </g>
    <g clip-path="url(#p222988bfbe)">
     <use style="fill:#ffdfdf;stroke:#000000;stroke-width:0.5;" x="490.178571" xlink:href="#C0_0_79ab74a1c8" y="292.62"/>
    </g>
    <g clip-path="url(#p222988bfbe)">
     <use style="fill:#ffbfbf;stroke:#000000;stroke-width:0.5;" x="495.714286" xlink:href="#C0_0_79ab74a1c8" y="286.58"/>
    </g>
    <g clip-path="url(#p222988bfbe)">
     <use style="fill:#ff9595;stroke:#000000;stroke-width:0.5;" x="501.25" xlink:href="#C0_0_79ab74a1c8" y="278.526667"/>
    </g>
    <g clip-path="url(#p222988bfbe)">
     <use style="fill:#ff8a8a;stroke:#000000;stroke-width:0.5;" x="506.785714" xlink:href="#C0_0_79ab74a1c8" y="276.513333"/>
    </g>
    <g clip-path="url(#p222988bfbe)">
     <use style="fill:#ff9595;stroke:#000000;stroke-width:0.5;" x="512.321429" xlink:href="#C0_0_79ab74a1c8" y="278.526667"/>
    </g>
    <g clip-path="url(#p222988bfbe)">
     <use style="fill:#ffb5b5;stroke:#000000;stroke-width:0.5;" x="517.857143" xlink:href="#C0_0_79ab74a1c8" y="283.56"/>
    </g>
    <g clip-path="url(#p222988bfbe)">
     <use style="fill:#ffd4d4;stroke:#000000;stroke-width:0.5;" x="523.392857" xlink:href="#C0_0_79ab74a1c8" y="290.606667"/>
    </g>
    <g clip-path="url(#p222988bfbe)">
     <use style="fill:#ffdfdf;stroke:#000000;stroke-width:0.5;" x="528.928571" xlink:href="#C0_0_79ab74a1c8" y="293.626667"/>
    </g>
    <g clip-path="url(#p222988bfbe)">
     <use style="fill:#ffeaea;stroke:#000000;stroke-width:0.5;" x="534.464286" xlink:href="#C0_0_79ab74a1c8" y="295.64"/>
    </g>
   </g>
   <g id="line2d_93">
    <path clip-path="url(#p222988bfbe)" d="M 75 299.666667 
L 540 299.666667 
" style="fill:none;stroke:#000000;stroke-linecap:square;stroke-opacity:0.25;"/>
   </g>
   <g id="patch_3">
    <path d="M 75 48 
L 540 48 
" style="fill:none;stroke:#000000;stroke-linecap:square;stroke-linejoin:miter;stroke-width:0.8;"/>
   </g>
   <g id="PolyCollection_1">
    <defs>
     <path d="M 75 -212.073333 
L 75 -159.726667 
L 80.535714 -140.6 
L 86.071429 -145.633333 
L 91.607143 -141.606667 
L 97.142857 -135.566667 
L 102.678571 -131.54 
L 108.214286 -124.493333 
L 113.75 -105.366667 
L 119.285714 -98.32 
L 124.821429 -99.326667 
L 130.357143 -111.406667 
L 135.892857 -107.38 
L 141.428571 -103.353333 
L 146.964286 -95.3 
L 152.5 -95.3 
L 158.035714 -111.406667 
L 163.571429 -106.373333 
L 169.107143 -114.426667 
L 174.642857 -109.393333 
L 180.178571 -103.353333 
L 185.714286 -97.313333 
L 191.25 -97.313333 
L 196.785714 -96.306667 
L 202.321429 -102.346667 
L 207.857143 -98.32 
L 213.392857 -98.32 
L 218.928571 -94.293333 
L 224.464286 -104.36 
L 230 -109.393333 
L 235.535714 -119.46 
L 241.071429 -135.566667 
L 246.607143 -133.553333 
L 252.142857 -133.553333 
L 257.678571 -123.486667 
L 263.214286 -110.4 
L 268.75 -99.326667 
L 274.285714 -98.32 
L 279.821429 -94.293333 
L 285.357143 -100.333333 
L 290.892857 -98.32 
L 296.428571 -98.32 
L 301.964286 -95.3 
L 307.5 -101.34 
L 313.035714 -105.366667 
L 318.571429 -111.406667 
L 324.107143 -120.466667 
L 329.642857 -118.453333 
L 335.178571 -118.453333 
L 340.714286 -117.446667 
L 346.25 -113.42 
L 351.785714 -112.413333 
L 357.321429 -109.393333 
L 362.857143 -99.326667 
L 368.392857 -99.326667 
L 373.928571 -96.306667 
L 379.464286 -101.34 
L 385 -107.38 
L 390.535714 -112.413333 
L 396.071429 -112.413333 
L 401.607143 -110.4 
L 407.142857 -105.366667 
L 412.678571 -106.373333 
L 418.214286 -105.366667 
L 423.75 -108.386667 
L 429.285714 -108.386667 
L 434.821429 -102.346667 
L 440.357143 -98.32 
L 445.892857 -95.3 
L 451.428571 -96.306667 
L 456.964286 -101.34 
L 462.5 -105.366667 
L 468.035714 -107.38 
L 473.571429 -106.373333 
L 479.107143 -98.32 
L 484.642857 -98.32 
L 490.178571 -100.333333 
L 495.714286 -107.38 
L 501.25 -115.433333 
L 506.785714 -117.446667 
L 512.321429 -115.433333 
L 517.857143 -111.406667 
L 523.392857 -103.353333 
L 528.928571 -100.333333 
L 534.464286 -98.32 
L 540 -96.306667 
L 540 -107.38 
L 540 -107.38 
L 534.464286 -109.393333 
L 528.928571 -111.406667 
L 523.392857 -114.426667 
L 517.857143 -122.48 
L 512.321429 -126.506667 
L 506.785714 -129.526667 
L 501.25 -127.513333 
L 495.714286 -119.46 
L 490.178571 -112.413333 
L 484.642857 -111.406667 
L 479.107143 -110.4 
L 473.571429 -119.46 
L 468.035714 -120.466667 
L 462.5 -118.453333 
L 456.964286 -114.426667 
L 451.428571 -109.393333 
L 445.892857 -108.386667 
L 440.357143 -111.406667 
L 434.821429 -115.433333 
L 429.285714 -121.473333 
L 423.75 -122.48 
L 418.214286 -119.46 
L 412.678571 -120.466667 
L 407.142857 -119.46 
L 401.607143 -125.5 
L 396.071429 -127.513333 
L 390.535714 -127.513333 
L 385 -122.48 
L 379.464286 -117.446667 
L 373.928571 -112.413333 
L 368.392857 -115.433333 
L 362.857143 -115.433333 
L 357.321429 -125.5 
L 351.785714 -128.52 
L 346.25 -130.533333 
L 340.714286 -134.56 
L 335.178571 -136.573333 
L 329.642857 -136.573333 
L 324.107143 -139.593333 
L 318.571429 -130.533333 
L 313.035714 -125.5 
L 307.5 -121.473333 
L 301.964286 -115.433333 
L 296.428571 -119.46 
L 290.892857 -119.46 
L 285.357143 -121.473333 
L 279.821429 -115.433333 
L 274.285714 -119.46 
L 268.75 -120.466667 
L 263.214286 -132.546667 
L 257.678571 -145.633333 
L 252.142857 -156.706667 
L 246.607143 -157.713333 
L 241.071429 -160.733333 
L 235.535714 -145.633333 
L 230 -136.573333 
L 224.464286 -132.546667 
L 218.928571 -122.48 
L 213.392857 -127.513333 
L 207.857143 -127.513333 
L 202.321429 -131.54 
L 196.785714 -126.506667 
L 191.25 -127.513333 
L 185.714286 -127.513333 
L 180.178571 -134.56 
L 174.642857 -140.6 
L 169.107143 -146.64 
L 163.571429 -139.593333 
L 158.035714 -145.633333 
L 152.5 -129.526667 
L 146.964286 -130.533333 
L 141.428571 -138.586667 
L 135.892857 -143.62 
L 130.357143 -148.653333 
L 124.821429 -137.58 
L 119.285714 -136.573333 
L 113.75 -143.62 
L 108.214286 -163.753333 
L 102.678571 -172.813333 
L 97.142857 -177.846667 
L 91.607143 -185.9 
L 86.071429 -192.946667 
L 80.535714 -189.926667 
L 75 -212.073333 
z
" id="m49b0b78998"/>
    </defs>
    <g clip-path="url(#p222988bfbe)">
     <use style="fill-opacity:0.1;" x="0" xlink:href="#m49b0b78998" y="400"/>
    </g>
   </g>
   <g id="text_16">
    <!-- Real-time $R_t$ for India -->
    <defs>
     <path d="M 44.390625 34.1875 
Q 47.5625 33.109375 50.5625 29.59375 
Q 53.5625 26.078125 56.59375 19.921875 
L 66.609375 0 
L 56 0 
L 46.6875 18.703125 
Q 43.0625 26.03125 39.671875 28.421875 
Q 36.28125 30.8125 30.421875 30.8125 
L 19.671875 30.8125 
L 19.671875 0 
L 9.8125 0 
L 9.8125 72.90625 
L 32.078125 72.90625 
Q 44.578125 72.90625 50.734375 67.671875 
Q 56.890625 62.453125 56.890625 51.90625 
Q 56.890625 45.015625 53.6875 40.46875 
Q 50.484375 35.9375 44.390625 34.1875 
z
M 19.671875 64.796875 
L 19.671875 38.921875 
L 32.078125 38.921875 
Q 39.203125 38.921875 42.84375 42.21875 
Q 46.484375 45.515625 46.484375 51.90625 
Q 46.484375 58.296875 42.84375 61.546875 
Q 39.203125 64.796875 32.078125 64.796875 
z
" id="DejaVuSans-82"/>
     <path d="M 56.203125 29.59375 
L 56.203125 25.203125 
L 14.890625 25.203125 
Q 15.484375 15.921875 20.484375 11.0625 
Q 25.484375 6.203125 34.421875 6.203125 
Q 39.59375 6.203125 44.453125 7.46875 
Q 49.3125 8.734375 54.109375 11.28125 
L 54.109375 2.78125 
Q 49.265625 0.734375 44.1875 -0.34375 
Q 39.109375 -1.421875 33.890625 -1.421875 
Q 20.796875 -1.421875 13.15625 6.1875 
Q 5.515625 13.8125 5.515625 26.8125 
Q 5.515625 40.234375 12.765625 48.109375 
Q 20.015625 56 32.328125 56 
Q 43.359375 56 49.78125 48.890625 
Q 56.203125 41.796875 56.203125 29.59375 
z
M 47.21875 32.234375 
Q 47.125 39.59375 43.09375 43.984375 
Q 39.0625 48.390625 32.421875 48.390625 
Q 24.90625 48.390625 20.390625 44.140625 
Q 15.875 39.890625 15.1875 32.171875 
z
" id="DejaVuSans-101"/>
     <path d="M 9.421875 75.984375 
L 18.40625 75.984375 
L 18.40625 0 
L 9.421875 0 
z
" id="DejaVuSans-108"/>
     <path d="M 4.890625 31.390625 
L 31.203125 31.390625 
L 31.203125 23.390625 
L 4.890625 23.390625 
z
" id="DejaVuSans-45"/>
     <path d="M 18.3125 70.21875 
L 18.3125 54.6875 
L 36.8125 54.6875 
L 36.8125 47.703125 
L 18.3125 47.703125 
L 18.3125 18.015625 
Q 18.3125 11.328125 20.140625 9.421875 
Q 21.96875 7.515625 27.59375 7.515625 
L 36.8125 7.515625 
L 36.8125 0 
L 27.59375 0 
Q 17.1875 0 13.234375 3.875 
Q 9.28125 7.765625 9.28125 18.015625 
L 9.28125 47.703125 
L 2.6875 47.703125 
L 2.6875 54.6875 
L 9.28125 54.6875 
L 9.28125 70.21875 
z
" id="DejaVuSans-116"/>
     <path d="M 9.421875 54.6875 
L 18.40625 54.6875 
L 18.40625 0 
L 9.421875 0 
z
M 9.421875 75.984375 
L 18.40625 75.984375 
L 18.40625 64.59375 
L 9.421875 64.59375 
z
" id="DejaVuSans-105"/>
     <path d="M 52 44.1875 
Q 55.375 50.25 60.0625 53.125 
Q 64.75 56 71.09375 56 
Q 79.640625 56 84.28125 50.015625 
Q 88.921875 44.046875 88.921875 33.015625 
L 88.921875 0 
L 79.890625 0 
L 79.890625 32.71875 
Q 79.890625 40.578125 77.09375 44.375 
Q 74.3125 48.1875 68.609375 48.1875 
Q 61.625 48.1875 57.5625 43.546875 
Q 53.515625 38.921875 53.515625 30.90625 
L 53.515625 0 
L 44.484375 0 
L 44.484375 32.71875 
Q 44.484375 40.625 41.703125 44.40625 
Q 38.921875 48.1875 33.109375 48.1875 
Q 26.21875 48.1875 22.15625 43.53125 
Q 18.109375 38.875 18.109375 30.90625 
L 18.109375 0 
L 9.078125 0 
L 9.078125 54.6875 
L 18.109375 54.6875 
L 18.109375 46.1875 
Q 21.1875 51.21875 25.484375 53.609375 
Q 29.78125 56 35.6875 56 
Q 41.65625 56 45.828125 52.96875 
Q 50 49.953125 52 44.1875 
z
" id="DejaVuSans-109"/>
     <path d="M 25.203125 64.796875 
L 20.21875 38.921875 
L 32.90625 38.921875 
Q 40.375 38.921875 44.984375 43.046875 
Q 49.609375 47.171875 49.609375 53.8125 
Q 49.609375 59.125 46.5 61.953125 
Q 43.40625 64.796875 37.59375 64.796875 
z
M 43.3125 35.015625 
Q 46.4375 34.28125 48.515625 31.390625 
Q 50.59375 28.515625 53.328125 19.921875 
L 59.515625 0 
L 49.125 0 
L 43.40625 18.703125 
Q 41.21875 25.921875 38.328125 28.359375 
Q 35.453125 30.8125 29.5 30.8125 
L 18.609375 30.8125 
L 12.59375 0 
L 2.6875 0 
L 16.890625 72.90625 
L 39.109375 72.90625 
Q 49.21875 72.90625 54.609375 68.328125 
Q 60.015625 63.765625 60.015625 55.171875 
Q 60.015625 47.5625 55.421875 41.984375 
Q 50.828125 36.421875 43.3125 35.015625 
z
" id="DejaVuSans-Oblique-82"/>
     <path d="M 42.28125 54.6875 
L 40.921875 47.703125 
L 23 47.703125 
L 17.1875 18.015625 
Q 16.890625 16.359375 16.75 15.234375 
Q 16.609375 14.109375 16.609375 13.484375 
Q 16.609375 10.359375 18.484375 8.9375 
Q 20.359375 7.515625 24.515625 7.515625 
L 33.59375 7.515625 
L 32.078125 0 
L 23.484375 0 
Q 15.484375 0 11.546875 3.125 
Q 7.625 6.25 7.625 12.59375 
Q 7.625 13.71875 7.765625 15.0625 
Q 7.90625 16.40625 8.203125 18.015625 
L 14.015625 47.703125 
L 6.390625 47.703125 
L 7.8125 54.6875 
L 15.28125 54.6875 
L 18.3125 70.21875 
L 27.296875 70.21875 
L 24.3125 54.6875 
z
" id="DejaVuSans-Oblique-116"/>
     <path d="M 37.109375 75.984375 
L 37.109375 68.5 
L 28.515625 68.5 
Q 23.6875 68.5 21.796875 66.546875 
Q 19.921875 64.59375 19.921875 59.515625 
L 19.921875 54.6875 
L 34.71875 54.6875 
L 34.71875 47.703125 
L 19.921875 47.703125 
L 19.921875 0 
L 10.890625 0 
L 10.890625 47.703125 
L 2.296875 47.703125 
L 2.296875 54.6875 
L 10.890625 54.6875 
L 10.890625 58.5 
Q 10.890625 67.625 15.140625 71.796875 
Q 19.390625 75.984375 28.609375 75.984375 
z
" id="DejaVuSans-102"/>
     <path d="M 30.609375 48.390625 
Q 23.390625 48.390625 19.1875 42.75 
Q 14.984375 37.109375 14.984375 27.296875 
Q 14.984375 17.484375 19.15625 11.84375 
Q 23.34375 6.203125 30.609375 6.203125 
Q 37.796875 6.203125 41.984375 11.859375 
Q 46.1875 17.53125 46.1875 27.296875 
Q 46.1875 37.015625 41.984375 42.703125 
Q 37.796875 48.390625 30.609375 48.390625 
z
M 30.609375 56 
Q 42.328125 56 49.015625 48.375 
Q 55.71875 40.765625 55.71875 27.296875 
Q 55.71875 13.875 49.015625 6.21875 
Q 42.328125 -1.421875 30.609375 -1.421875 
Q 18.84375 -1.421875 12.171875 6.21875 
Q 5.515625 13.875 5.515625 27.296875 
Q 5.515625 40.765625 12.171875 48.375 
Q 18.84375 56 30.609375 56 
z
" id="DejaVuSans-111"/>
     <path d="M 9.8125 72.90625 
L 19.671875 72.90625 
L 19.671875 0 
L 9.8125 0 
z
" id="DejaVuSans-73"/>
     <path d="M 45.40625 46.390625 
L 45.40625 75.984375 
L 54.390625 75.984375 
L 54.390625 0 
L 45.40625 0 
L 45.40625 8.203125 
Q 42.578125 3.328125 38.25 0.953125 
Q 33.9375 -1.421875 27.875 -1.421875 
Q 17.96875 -1.421875 11.734375 6.484375 
Q 5.515625 14.40625 5.515625 27.296875 
Q 5.515625 40.1875 11.734375 48.09375 
Q 17.96875 56 27.875 56 
Q 33.9375 56 38.25 53.625 
Q 42.578125 51.265625 45.40625 46.390625 
z
M 14.796875 27.296875 
Q 14.796875 17.390625 18.875 11.75 
Q 22.953125 6.109375 30.078125 6.109375 
Q 37.203125 6.109375 41.296875 11.75 
Q 45.40625 17.390625 45.40625 27.296875 
Q 45.40625 37.203125 41.296875 42.84375 
Q 37.203125 48.484375 30.078125 48.484375 
Q 22.953125 48.484375 18.875 42.84375 
Q 14.796875 37.203125 14.796875 27.296875 
z
" id="DejaVuSans-100"/>
    </defs>
    <g transform="translate(243.84 42)scale(0.12 -0.12)">
     <use transform="translate(0 0.015625)" xlink:href="#DejaVuSans-82"/>
     <use transform="translate(69.482422 0.015625)" xlink:href="#DejaVuSans-101"/>
     <use transform="translate(131.005859 0.015625)" xlink:href="#DejaVuSans-97"/>
     <use transform="translate(192.285156 0.015625)" xlink:href="#DejaVuSans-108"/>
     <use transform="translate(220.068359 0.015625)" xlink:href="#DejaVuSans-45"/>
     <use transform="translate(256.152344 0.015625)" xlink:href="#DejaVuSans-116"/>
     <use transform="translate(295.361328 0.015625)" xlink:href="#DejaVuSans-105"/>
     <use transform="translate(323.144531 0.015625)" xlink:href="#DejaVuSans-109"/>
     <use transform="translate(420.556641 0.015625)" xlink:href="#DejaVuSans-101"/>
     <use transform="translate(482.080078 0.015625)" xlink:href="#DejaVuSans-32"/>
     <use transform="translate(513.867188 0.015625)" xlink:href="#DejaVuSans-Oblique-82"/>
     <use transform="translate(583.349609 -16.390625)scale(0.7)" xlink:href="#DejaVuSans-Oblique-116"/>
     <use transform="translate(613.530273 0.015625)" xlink:href="#DejaVuSans-32"/>
     <use transform="translate(645.317383 0.015625)" xlink:href="#DejaVuSans-102"/>
     <use transform="translate(680.522461 0.015625)" xlink:href="#DejaVuSans-111"/>
     <use transform="translate(741.704102 0.015625)" xlink:href="#DejaVuSans-114"/>
     <use transform="translate(782.817383 0.015625)" xlink:href="#DejaVuSans-32"/>
     <use transform="translate(814.604492 0.015625)" xlink:href="#DejaVuSans-73"/>
     <use transform="translate(844.09668 0.015625)" xlink:href="#DejaVuSans-110"/>
     <use transform="translate(907.475586 0.015625)" xlink:href="#DejaVuSans-100"/>
     <use transform="translate(970.952148 0.015625)" xlink:href="#DejaVuSans-105"/>
     <use transform="translate(998.735352 0.015625)" xlink:href="#DejaVuSans-97"/>
    </g>
   </g>
  </g>
 </g>
 <defs>
  <clipPath id="p222988bfbe">
   <rect height="302" width="465" x="75" y="48"/>
  </clipPath>
 </defs>
</svg>
